<?xml version="1.0" standalone="no"?>
<!DOCTYPE svg PUBLIC "-//W3C//DTD SVG 20010904//EN"
 "http://www.w3.org/TR/2001/REC-SVG-20010904/DTD/svg10.dtd">
<svg version="1.0" xmlns="http://www.w3.org/2000/svg"
 width="992.000000pt" height="992.000000pt" viewBox="0 0 992.000000 992.000000"
 preserveAspectRatio="xMidYMid meet">

<g transform="translate(0.000000,992.000000) scale(0.100000,-0.100000)"
fill="#000000" stroke="none">
<path d="M5460 9330 c-91 -4 -280 -13 -420 -19 -140 -6 -289 -15 -330 -21 -41
-5 -138 -10 -215 -10 -77 0 -185 -5 -240 -11 -55 -5 -147 -12 -205 -14 -197
-8 -492 -78 -690 -165 -334 -147 -635 -480 -884 -980 -269 -541 -395 -1017
-495 -1875 -60 -513 -62 -1089 -6 -1725 58 -650 212 -1314 422 -1819 237 -572
528 -968 882 -1205 100 -67 105 -71 66 -56 -27 10 -32 9 -50 -14 -12 -14 -28
-26 -37 -26 -9 0 -23 -12 -30 -27 -11 -21 -20 -28 -41 -26 -21 1 -27 -3 -28
-20 -2 -36 1 -48 24 -83 33 -50 82 -68 229 -84 42 -4 81 -11 87 -14 5 -4 86
-13 178 -21 92 -8 191 -19 218 -24 28 -6 86 -12 130 -16 44 -3 112 -10 150
-15 113 -16 456 -39 795 -55 403 -19 683 -12 1035 26 184 21 551 84 570 99 6
4 25 11 44 15 19 4 48 16 65 26 17 10 39 19 49 19 11 0 30 9 44 20 14 11 32
20 40 20 7 0 18 11 23 25 6 15 17 25 30 25 11 0 20 2 20 4 0 20 -34 164 -41
172 -5 6 -6 14 -2 18 4 4 -1 4 -12 0 -11 -4 7 21 40 57 190 202 292 345 398
558 134 266 219 495 312 834 113 412 182 823 220 1317 42 556 48 701 41 1025
-7 382 -16 575 -27 575 -4 0 -5 -8 -2 -18 2 -11 -5 -26 -19 -37 l-23 -20 18
21 c23 28 22 47 -3 39 -14 -5 -20 -2 -20 10 0 10 7 15 18 13 11 -2 20 0 20 5
5 20 1 28 -10 21 -7 -4 -8 -3 -4 5 4 6 12 9 17 6 5 -4 9 14 9 39 0 25 -4 48
-10 51 -5 3 -7 20 -4 38 5 26 3 29 -6 17 -10 -12 -10 -10 -5 10 17 63 17 67 0
74 -10 3 -24 1 -31 -5 -8 -6 -14 -10 -15 -8 -16 79 -21 162 -10 155 6 -4 11
-1 11 6 1 8 8 5 18 -8 17 -21 18 -20 19 25 0 40 -1 42 -7 16 -8 -33 -10 -29
-16 29 -3 40 -24 76 -24 43 0 -25 -19 -21 -24 6 -18 86 -40 261 -38 307 1 38
-1 50 -8 40 -9 -13 -10 -13 -9 0 0 8 4 24 8 35 7 16 10 11 14 -25 3 -25 6 -52
7 -60 1 -39 7 -67 18 -87 7 -12 9 -29 5 -39 -3 -10 -2 -15 3 -12 5 3 10 -17
12 -44 2 -28 8 -60 14 -72 11 -20 12 -20 20 9 5 18 3 71 -4 130 -7 55 -14 89
-16 75 -6 -42 -18 -42 -17 -1 0 21 3 37 8 34 4 -2 7 11 6 29 -1 27 -2 29 -7
10 -6 -18 -11 -11 -26 40 -11 35 -26 70 -33 79 -12 14 -12 17 2 22 11 5 16 -3
21 -33 4 -22 10 -40 15 -40 4 0 10 -8 13 -17 3 -10 3 2 0 27 -4 25 -6 51 -7
58 0 6 -4 12 -8 12 -5 0 -6 6 -3 14 6 14 -43 272 -54 291 -7 11 -8 17 -10 53
-2 21 -4 22 -17 8 -11 -11 -13 -21 -6 -39 6 -14 7 -28 4 -31 -3 -3 0 -13 8
-22 12 -15 12 -17 -1 -12 -25 8 -38 -13 -29 -47 5 -16 9 -39 8 -50 -1 -11 -14
30 -29 90 -70 278 -140 494 -227 705 -125 301 -240 488 -397 646 -84 83 -115
108 -186 143 -139 68 -237 75 -382 25 -144 -49 -284 -158 -391 -304 -14 -19
-17 -21 -12 -5 16 51 27 189 22 273 -6 100 -2 113 12 41 l9 -44 1 42 c1 31 8
48 26 65 14 13 23 32 21 43 -3 19 27 50 48 50 5 0 11 6 14 14 3 9 0 11 -8 6
-9 -5 -11 -4 -6 4 6 9 11 9 22 0 11 -9 14 -7 15 12 1 13 1 27 0 32 0 4 3 7 9
7 6 0 10 -15 11 -32 l0 -33 13 35 c7 19 9 40 4 46 -4 6 -4 14 0 19 4 4 2 6 -5
4 -21 -7 -153 -121 -174 -151 -11 -15 -25 -28 -30 -28 -6 0 9 21 33 46 24 26
42 50 41 54 -1 4 12 20 30 36 18 17 24 19 13 7 -11 -13 -15 -23 -9 -23 13 0
45 35 38 42 -3 3 3 11 12 19 16 13 17 12 4 -3 -8 -11 -9 -18 -3 -18 12 0 27
19 27 35 0 5 7 10 15 10 30 1 63 17 50 25 -8 5 -7 9 5 13 11 5 14 3 9 -5 -5
-8 -2 -9 12 -4 54 23 125 46 139 46 8 0 15 6 15 13 0 7 3 8 8 2 8 -11 122 -14
122 -2 0 4 10 7 23 6 21 0 21 -1 2 -9 -16 -7 -17 -9 -3 -9 9 -1 25 -4 35 -7
15 -5 16 -4 3 5 -12 9 -9 10 15 5 17 -3 35 -12 40 -19 13 -15 59 -40 51 -27
-10 17 32 1 46 -17 10 -13 10 -14 -2 -3 -8 6 -18 12 -24 12 -5 0 -1 -6 9 -14
11 -8 26 -11 35 -8 8 3 12 2 8 -3 -4 -4 16 -25 45 -48 29 -22 58 -45 65 -50 9
-7 11 -5 5 9 -6 17 -5 18 11 5 9 -8 22 -24 28 -35 9 -17 8 -19 -3 -8 -7 6 -16
12 -20 12 -4 0 17 -25 47 -56 122 -125 140 -163 179 -379 24 -132 46 -198 113
-331 106 -210 190 -430 272 -714 21 -74 42 -152 45 -173 4 -20 11 -40 16 -43
13 -7 27 36 21 61 -5 19 -6 18 -14 -5 -7 -24 -8 -24 -4 3 2 15 -2 27 -8 28 -6
0 -2 4 9 8 26 10 34 49 17 83 -7 15 -11 32 -8 37 4 5 2 12 -4 16 -5 3 -10 21
-10 38 -1 47 -45 209 -55 200 -4 -5 -5 -2 -1 4 14 25 -95 356 -188 571 -48
112 -113 242 -130 261 -8 9 -18 28 -21 43 -4 16 -12 25 -18 21 -6 -4 -8 0 -4
11 4 9 3 15 -1 12 -4 -3 -14 4 -21 16 -10 16 -10 19 0 12 8 -4 -12 28 -43 73
-31 44 -54 84 -50 88 4 5 2 5 -5 2 -6 -4 -15 5 -22 23 -24 69 -187 246 -362
393 -83 70 -227 140 -354 173 -171 45 -485 61 -855 44z m293 -37 c-7 -2 -21
-2 -30 0 -10 3 -4 5 12 5 17 0 24 -2 18 -5z m112 -13 c42 -11 1 -11 -50 -1
-34 7 -35 9 -10 9 17 0 44 -4 60 -8z m62 -16 c-3 -3 -12 -4 -19 -1 -8 3 -5 6
6 6 11 1 17 -2 13 -5z m-537 -24 c-8 -5 -19 -10 -25 -10 -5 0 -3 5 5 10 8 5
20 10 25 10 6 0 3 -5 -5 -10z m620 0 c8 -5 11 -10 5 -10 -5 0 -17 5 -25 10 -8
5 -10 10 -5 10 6 0 17 -5 25 -10z m-705 -10 c-3 -5 -12 -10 -18 -10 -7 0 -6 4
3 10 19 12 23 12 15 0z m242 4 c-3 -3 -12 -4 -19 -1 -8 3 -5 6 6 6 11 1 17 -2
13 -5z m106 -11 c-7 -2 -19 -2 -25 0 -7 3 -2 5 12 5 14 0 19 -2 13 -5z m70
-10 c-7 -2 -19 -2 -25 0 -7 3 -2 5 12 5 14 0 19 -2 13 -5z m-393 -7 c0 -6 -76
-56 -86 -56 -5 0 11 14 36 30 46 31 50 33 50 26z m37 -2 c-3 -3 -12 -4 -19 -1
-8 3 -5 6 6 6 11 1 17 -2 13 -5z m400 0 c-3 -3 -12 -4 -19 -1 -8 3 -5 6 6 6
11 1 17 -2 13 -5z m-580 -10 c-3 -3 -12 -4 -19 -1 -8 3 -5 6 6 6 11 1 17 -2
13 -5z m-297 -29 c-44 -32 -53 -32 -16 0 16 14 34 25 39 25 6 0 -4 -11 -23
-25z m257 19 c-3 -3 -12 -4 -19 -1 -8 3 -5 6 6 6 11 1 17 -2 13 -5z m-1008
-28 c-19 -13 -41 -31 -50 -38 -10 -9 -23 -12 -35 -7 -18 7 -18 8 -1 8 19 1 79
38 85 53 2 4 11 8 20 8 10 0 2 -10 -19 -24z m186 -7 c-49 -31 -49 -47 0 -50
11 0 16 -2 10 -5 -5 -2 -29 -1 -53 4 l-43 7 58 37 c32 21 62 38 67 38 6 0 -12
-14 -39 -31z m115 27 c0 -2 -11 -6 -25 -8 -13 -3 -22 -1 -19 3 5 9 44 13 44 5z
m752 -38 c-26 -24 -60 -57 -75 -75 -15 -17 -40 -34 -55 -38 -15 -3 -114 -49
-220 -101 -106 -52 -216 -100 -245 -106 -29 -6 -64 -22 -78 -35 -14 -13 -29
-20 -34 -16 -4 5 -5 0 -2 -9 6 -18 -3 -24 -16 -12 -7 7 20 46 83 123 68 83
101 117 94 96 -10 -29 55 32 67 63 5 13 22 31 39 40 16 9 30 20 30 25 0 4 5 7
11 7 5 0 8 -4 5 -9 -8 -13 70 5 148 34 38 14 71 23 73 21 7 -7 -130 -55 -204
-72 -40 -9 -73 -20 -73 -25 0 -5 4 -9 9 -9 35 0 167 36 287 79 78 27 152 51
165 54 13 2 27 5 31 6 4 0 -14 -18 -40 -41z m-542 -5 c-24 -21 -48 -42 -54
-49 -7 -7 -23 -8 -51 -2 -22 5 -70 6 -106 3 -42 -4 -69 -3 -73 4 -4 6 6 8 29
4 20 -3 41 -1 48 6 8 6 16 9 18 7 3 -3 31 -7 64 -10 58 -4 62 -3 105 35 25 21
49 39 54 39 5 0 -10 -17 -34 -37z m1266 21 c18 -14 18 -14 -6 -3 -31 14 -36
19 -24 19 6 0 19 -7 30 -16z m-409 0 c-3 -3 -12 -4 -19 -1 -8 3 -5 6 6 6 11 1
17 -2 13 -5z m-668 -44 c-9 -9 -39 -10 -39 0 0 6 8 10 18 11 10 0 12 3 4 6 -6
2 -9 9 -6 15 4 6 11 3 17 -8 6 -11 9 -21 6 -24z m604 23 c-7 -2 -19 -2 -25 0
-7 3 -2 5 12 5 14 0 19 -2 13 -5z m-1540 -10 c-13 -2 -35 -2 -50 0 -16 2 -5 4
22 4 28 0 40 -2 28 -4z m1338 -4 c-13 -5 -37 -21 -55 -36 -28 -23 -29 -25 -7
-18 26 8 161 8 170 0 2 -3 -30 -5 -72 -5 -90 0 -78 1 -119 -10 l-33 -10 47 45
c29 28 56 45 70 44 l23 0 -24 -10z m282 4 c-7 -2 -19 -2 -25 0 -7 3 -2 5 12 5
14 0 19 -2 13 -5z m-244 -38 c2 -2 -15 -4 -38 -3 -22 0 -39 4 -36 8 5 8 65 3
74 -5z m-1709 1 c0 -2 -17 -16 -37 -31 l-38 -26 35 30 c34 31 40 35 40 27z
m155 -12 c-16 -8 -37 -21 -45 -28 -17 -14 -48 -33 -40 -23 19 22 86 67 99 67
9 0 3 -7 -14 -16z m315 11 c0 -3 -18 -22 -41 -42 -35 -31 -47 -37 -80 -34 -45
3 -54 -16 -10 -21 l29 -3 -44 -48 -44 -48 -92 10 c-51 6 -120 11 -153 13 -71
3 -79 5 -62 21 77 69 89 79 77 62 -8 -11 -23 -30 -34 -42 -11 -13 -14 -23 -8
-23 6 0 14 5 17 10 3 6 15 10 26 10 10 0 19 5 19 10 0 6 17 10 38 11 20 1 48
5 62 9 21 7 19 8 -15 8 -64 -1 -89 1 -81 9 4 4 27 6 51 4 55 -3 94 7 74 20 -9
6 -2 9 24 9 23 0 36 4 32 10 -3 6 4 10 16 10 19 0 20 -2 8 -17 -13 -15 -12
-15 8 -4 13 6 22 17 20 24 -1 6 9 14 23 16 17 4 8 7 -30 12 -43 4 -30 6 58 7
61 1 112 0 112 -3z m1277 -1 c-3 -3 -12 -4 -19 -1 -8 3 -5 6 6 6 11 1 17 -2
13 -5z m-942 -19 c61 -3 126 -8 146 -11 l37 -5 -41 -45 c-36 -39 -45 -44 -86
-45 l-46 -1 37 -10 37 -10 -42 -54 -42 -55 -48 7 c-26 3 -91 7 -143 8 -54 1
-98 7 -102 13 -4 5 -21 12 -39 15 -24 3 -33 0 -36 -14 -3 -12 0 -18 10 -18 33
0 298 -33 315 -39 15 -5 12 -14 -23 -70 -38 -59 -43 -63 -72 -58 -18 2 -38 2
-45 0 -21 -8 -2 -23 29 -23 16 0 29 -3 29 -6 0 -3 -17 -37 -37 -75 -35 -64
-40 -69 -63 -63 -14 4 -65 8 -115 9 -96 2 -155 11 -155 25 0 4 -15 12 -34 17
l-34 8 35 50 c19 28 33 41 31 31 -2 -10 3 -21 11 -24 10 -3 12 0 8 12 -4 9
-10 22 -13 30 -4 11 0 13 15 9 13 -3 21 -1 21 7 0 7 -7 10 -17 5 -13 -4 -15
-3 -7 5 7 7 29 8 70 1 32 -5 65 -6 73 -1 16 9 -6 15 -85 26 l-51 6 -39 -53
c-34 -47 -64 -72 -64 -54 0 16 34 54 43 48 6 -3 7 -1 3 6 -7 10 58 111 70 111
3 0 2 -4 -1 -10 -12 -19 8 -10 31 15 14 15 20 32 17 45 -5 19 10 29 20 13 2
-5 2 -2 1 5 -2 7 18 35 44 63 l48 51 95 6 c60 3 87 8 74 13 -33 13 -133 10
-138 -3 -2 -7 -8 -10 -12 -6 -4 4 8 17 28 28 19 12 38 28 41 36 4 10 13 14 22
10 9 -4 13 -2 8 5 -9 16 17 30 46 24 14 -2 75 -7 135 -10z m1085 -15 c16 -5 2
-6 -35 -3 -33 3 -62 7 -64 9 -8 7 74 2 99 -6z m-1750 -20 c0 -5 -5 -10 -11
-10 -5 0 -7 5 -4 10 3 6 8 10 11 10 2 0 4 -4 4 -10z m40 -6 c0 -2 -7 -4 -15
-4 -8 0 -15 4 -15 10 0 5 7 7 15 4 8 -4 15 -8 15 -10z m1682 0 c21 -4 35 -10
33 -14 -3 -4 -21 -4 -40 0 -19 4 -33 4 -30 0 3 -5 1 -11 -5 -15 -5 -3 -10 1
-10 10 0 9 -5 13 -10 10 -7 -4 -7 -13 0 -26 8 -14 7 -19 -2 -19 -9 0 -9 -3 2
-10 8 -5 12 -10 8 -10 -3 0 -14 -3 -24 -7 -12 -4 -15 -3 -10 5 4 7 1 12 -8 12
-28 0 -17 -19 17 -29 24 -8 15 -9 -43 -4 -41 3 -77 5 -80 5 -20 0 -30 -3 -30
-10 0 -4 40 -13 89 -20 100 -13 173 -36 85 -26 -48 6 -52 5 -59 -17 -4 -13
-15 -32 -24 -43 -20 -23 -18 -29 11 -38 14 -5 7 -6 -17 -3 -145 19 -226 25
-264 20 -31 -5 -47 -3 -53 7 -8 10 -9 9 -5 -3 4 -12 -2 -18 -19 -22 -22 -4
-21 0 20 57 30 42 52 63 73 68 28 7 50 34 39 45 -7 8 -27 -7 -22 -16 3 -4 -1
-8 -9 -8 -11 0 -9 6 5 26 48 64 57 72 100 81 46 9 214 6 282 -6z m85 10 c-3
-3 -12 -4 -19 -1 -8 3 -5 6 6 6 11 1 17 -2 13 -5z m-823 -19 c-4 -8 -11 -15
-16 -15 -6 0 -5 6 2 15 7 8 14 15 16 15 2 0 1 -7 -2 -15z m-1224 -9 c0 -2 -8
-10 -17 -17 -16 -13 -17 -12 -4 4 13 16 21 21 21 13z m2037 -2 c-3 -3 -12 -4
-19 -1 -8 3 -5 6 6 6 11 1 17 -2 13 -5z m-534 -111 c-36 -47 -69 -96 -75 -107
-5 -12 -35 -35 -66 -51 -31 -17 -124 -74 -206 -129 -151 -100 -201 -127 -233
-125 -10 0 0 7 21 15 51 19 53 20 30 45 -10 11 -19 26 -20 32 0 7 -2 20 -2 30
-1 10 -6 16 -11 13 -17 -11 -4 64 14 84 35 38 48 23 20 -23 -14 -24 -25 -47
-25 -50 0 -10 19 -9 63 4 50 13 48 28 -3 19 -40 -7 -40 -7 -27 14 7 11 26 42
42 67 27 43 32 47 89 57 42 8 118 40 240 102 99 49 188 90 197 90 13 0 1 -23
-48 -87z m-1543 74 c0 -2 -12 -14 -27 -28 l-28 -24 24 28 c23 25 31 32 31 24z
m1990 -17 c-8 -5 -19 -10 -25 -10 -5 0 -3 5 5 10 8 5 20 10 25 10 6 0 3 -5 -5
-10z m25 -40 c25 -11 -1 -11 -35 0 -20 6 -21 8 -5 8 11 0 29 -3 40 -8z m1429
-39 c30 -33 5 -24 -39 15 -36 32 -37 34 -10 21 17 -8 39 -24 49 -36z m-3235 8
c60 -4 128 -10 150 -14 l41 -7 -47 -60 c-44 -55 -49 -59 -79 -53 -18 3 -35 1
-38 -4 -3 -5 9 -12 28 -15 l33 -6 -44 -69 -45 -69 -37 9 c-20 4 -91 15 -156
24 -66 8 -128 18 -137 21 -25 8 -10 -36 16 -46 11 -5 16 -9 9 -9 -22 -2 -43
11 -43 26 0 13 -3 13 -16 2 -19 -16 16 47 43 76 10 11 32 38 48 60 38 51 106
124 114 123 32 -4 42 3 36 25 -5 16 -4 18 4 8 6 -10 42 -17 120 -22z m-320
-38 c-24 -28 -48 -51 -54 -51 -5 0 11 20 35 45 27 27 38 45 30 46 -9 0 -7 4 5
8 32 13 30 5 -16 -48z m2138 23 c-3 -3 -12 -4 -19 -1 -8 3 -5 6 6 6 11 1 17
-2 13 -5z m-97 -100 c0 -2 -7 -4 -15 -4 -8 0 -15 4 -15 10 0 5 7 7 15 4 8 -4
15 -8 15 -10z m-164 -9 c94 -18 106 -26 28 -18 -57 6 -58 5 -44 -12 8 -10 10
-16 3 -12 -13 8 -79 -21 -69 -30 3 -3 12 0 21 7 15 12 17 10 19 -20 2 -24 -23
-43 -50 -37 -14 2 -22 1 -17 -3 16 -14 73 -20 73 -7 0 9 2 9 8 1 4 -7 26 -18
50 -24 62 -19 46 -22 -34 -5 -94 19 -161 22 -176 7 -7 -7 -10 -12 -7 -13 161
-34 173 -37 116 -32 -64 6 -109 -9 -100 -33 3 -10 0 -12 -10 -8 -12 4 -14 1
-10 -15 3 -11 10 -18 16 -14 5 3 7 2 4 -4 -3 -5 -20 -9 -36 -8 -17 1 -28 -2
-26 -6 3 -4 -12 -14 -33 -22 l-37 -16 38 0 c28 -1 36 2 31 12 -5 7 0 6 10 -3
10 -8 37 -21 60 -27 30 -10 33 -12 10 -8 -139 19 -228 16 -297 -11 -15 -5 -10
10 23 75 34 68 47 85 75 97 41 17 47 39 10 32 l-25 -5 36 66 c20 36 41 71 46
78 25 32 174 41 294 18z m-1966 -27 c-22 -37 -76 -102 -64 -78 4 8 18 30 32
49 20 27 22 35 11 43 -11 8 -10 9 4 4 9 -3 17 -1 17 4 0 6 4 10 10 10 5 0 1
-15 -10 -32z m1970 -33 c0 -11 -29 -11 -33 -1 -4 10 1 12 14 9 10 -3 19 -7 19
-8z m-378 -37 c-31 -50 -132 -254 -132 -265 0 -6 -7 -16 -15 -23 -13 -11 -14
-10 -9 4 4 11 2 15 -7 13 -8 -2 -11 -2 -7 0 4 3 10 4 14 3 7 -1 46 81 41 86
-2 2 -10 -7 -17 -21 -14 -27 -53 -38 -107 -32 -18 3 -30 1 -28 -4 3 -4 1 -11
-5 -14 -6 -4 -9 -1 -8 6 2 6 -3 14 -11 17 -8 2 -11 0 -7 -6 3 -6 2 -13 -4 -17
-9 -6 -14 7 -11 28 2 11 -13 8 -29 -5 -8 -7 -6 -3 5 10 10 12 21 19 24 15 9
-12 44 -9 48 3 7 20 -45 22 -75 4 -32 -20 -125 -42 -116 -29 3 5 13 9 22 9 33
0 119 48 259 143 130 89 182 120 192 111 2 -1 -6 -18 -17 -36z m-426 -35 c-1
-24 -91 -213 -101 -213 -2 0 -1 10 3 22 4 15 2 19 -7 13 -7 -4 4 25 24 64 20
39 39 71 42 71 3 0 2 -7 -1 -16 -3 -9 -2 -12 5 -9 6 4 8 14 5 22 -5 12 18 73
28 73 2 0 3 -12 2 -27z m-579 -27 c-3 -6 -10 -10 -16 -8 -7 1 -9 -2 -6 -9 7
-10 -24 -79 -35 -79 -3 0 -12 5 -20 11 -12 9 -12 10 4 5 14 -5 17 -2 12 9 -3
9 -2 13 4 10 5 -3 14 5 21 17 12 22 11 22 -6 8 -17 -14 -17 -14 -2 16 14 28
53 46 44 20z m572 -69 c-41 -76 -47 -73 -8 4 16 34 32 59 35 57 2 -3 -10 -30
-27 -61z m-874 38 c50 -8 93 -15 97 -15 7 0 -67 -146 -83 -164 -4 -4 -20 -3
-36 3 l-28 11 31 -6 c26 -4 32 -1 43 22 10 23 9 30 -6 47 -13 14 -15 21 -5 24
6 3 12 9 12 14 0 6 -4 8 -8 5 -12 -7 -38 12 -29 21 5 4 13 1 18 -7 9 -12 10
-12 5 3 -5 16 -4 16 19 1 23 -15 37 -33 16 -20 -12 8 -24 -25 -13 -36 4 -4 18
10 31 32 l23 41 -28 -7 c-20 -5 -25 -4 -19 6 6 10 0 11 -29 6 -20 -4 -36 -3
-36 2 0 5 -10 10 -22 10 -13 1 -45 5 -73 10 l-50 10 40 1 c22 0 81 -6 130 -14z
m-99 -47 c-6 -5 -3 -8 10 -8 11 0 21 -6 21 -13 0 -8 -6 -14 -13 -14 -7 0 -11
4 -9 8 3 4 -2 9 -10 13 -9 3 -12 12 -8 22 5 13 3 15 -8 9 -12 -7 -12 -6 1 9
13 17 14 17 21 -1 3 -10 1 -21 -5 -25z m1024 17 c7 -8 9 -15 6 -15 -4 0 -14 7
-22 15 -9 8 -11 15 -6 15 5 0 15 -7 22 -15z m767 9 c-3 -3 -12 -4 -19 -1 -8 3
-5 6 6 6 11 1 17 -2 13 -5z m-1737 -14 c-12 -8 -12 -10 -1 -10 8 0 12 -3 8 -6
-9 -9 -28 6 -22 17 4 5 12 9 18 9 7 0 6 -4 -3 -10z m-209 -27 c-8 -15 -10 -15
-11 -2 0 17 10 32 18 25 2 -3 -1 -13 -7 -23z m531 -5 c-7 -7 -12 -8 -12 -2 0
14 12 26 19 19 2 -3 -1 -11 -7 -17z m133 2 c33 -4 99 -15 146 -25 l86 -17 -30
-57 c-17 -31 -31 -57 -32 -59 -2 -2 -5 4 -9 13 -3 9 -2 14 2 11 5 -3 18 15 30
39 l22 45 -27 6 c-15 4 -48 8 -74 8 -26 1 -45 4 -42 9 2 4 -5 7 -16 7 -15 0
-19 -5 -15 -17 3 -11 0 -9 -7 3 -9 18 -24 23 -75 29 -35 3 -67 11 -70 17 -5 7
2 8 22 3 16 -4 56 -11 89 -15z m-185 -40 c0 -5 -7 -7 -15 -4 -8 4 -15 8 -15
10 0 2 7 4 15 4 8 0 15 -4 15 -10z m11 -41 c-12 -19 -21 -30 -21 -26 0 14 31
69 36 64 3 -3 -4 -20 -15 -38z m-483 14 c-10 -2 -26 -2 -35 0 -10 3 -2 5 17 5
19 0 27 -2 18 -5z m462 3 c0 -3 -4 -8 -10 -11 -5 -3 -10 -1 -10 4 0 6 5 11 10
11 6 0 10 -2 10 -4z m603 -21 c-3 -9 -8 -14 -10 -11 -3 3 -2 9 2 15 9 16 15
13 8 -4z m-632 -28 c-10 -9 -11 -8 -5 6 3 10 9 15 12 12 3 -3 0 -11 -7 -18z
m22 -22 c-3 -9 -8 -14 -10 -11 -3 3 -2 9 2 15 9 16 15 13 8 -4z m533 -42 c-14
-26 -25 -45 -26 -41 0 12 43 98 48 94 2 -2 -8 -26 -22 -53z m559 48 c-6 -5
-26 -12 -45 -15 l-35 -6 35 14 c42 17 58 20 45 7z m42 3 c-3 -3 -12 -4 -19 -1
-8 3 -5 6 6 6 11 1 17 -2 13 -5z m-1174 -24 c-3 -11 -10 -23 -16 -27 -5 -3 -8
-2 -5 3 3 5 8 17 11 27 9 24 16 22 10 -3z m-196 4 c-3 -3 -12 -4 -19 -1 -8 3
-5 6 6 6 11 1 17 -2 13 -5z m1091 -51 c-40 -30 -85 -65 -99 -77 -14 -11 -3 -1
25 24 28 25 64 59 81 75 16 17 38 31 48 32 10 1 -15 -23 -55 -54z m-1058 43
c0 -3 -4 -8 -10 -11 -5 -3 -10 -1 -10 4 0 6 5 11 10 11 6 0 10 -2 10 -4z m257
-2 c-3 -3 -12 -4 -19 -1 -8 3 -5 6 6 6 11 1 17 -2 13 -5z m514 -17 c-10 -9
-11 -8 -5 6 3 10 9 15 12 12 3 -3 0 -11 -7 -18z m429 8 c-7 -9 -15 -13 -17
-11 -7 7 7 26 19 26 6 0 6 -6 -2 -15z m-640 -34 c-11 -22 -21 -24 -60 -10 -20
7 -18 8 11 4 31 -5 37 -2 42 17 4 12 9 19 12 16 4 -3 2 -16 -5 -27z m-429 -14
c-10 -9 -11 -8 -5 6 3 10 9 15 12 12 3 -3 0 -11 -7 -18z m1040 -4 c-12 -20
-14 -14 -5 12 4 9 9 14 11 11 3 -2 0 -13 -6 -23z m-854 11 c-3 -3 -12 -4 -19
-1 -8 3 -5 6 6 6 11 1 17 -2 13 -5z m434 -17 c-10 -9 -11 -8 -5 6 3 10 9 15
12 12 3 -3 0 -11 -7 -18z m379 15 c0 -5 -12 -14 -27 -21 l-28 -11 24 20 c26
22 31 24 31 12z m-639 -40 c-7 -2 -18 1 -23 6 -8 8 -4 9 13 5 13 -4 18 -8 10
-11z m210 -5 c-10 -9 -11 -8 -5 6 3 10 9 15 12 12 3 -3 0 -11 -7 -18z m84 13
c-3 -5 -14 -10 -23 -9 -14 0 -13 2 3 9 27 11 27 11 20 0z m366 -23 c-10 -9
-11 -8 -5 6 3 10 9 15 12 12 3 -3 0 -11 -7 -18z m-614 7 c-3 -3 -12 -4 -19 -1
-8 3 -5 6 6 6 11 1 17 -2 13 -5z m473 -37 c0 -2 -10 -12 -22 -23 l-23 -19 19
23 c18 21 26 27 26 19z m121 -24 c-12 -20 -14 -14 -5 12 4 9 9 14 11 11 3 -2
0 -13 -6 -23z m2666 -185 c-3 -7 -5 -2 -5 12 0 14 2 19 5 13 2 -7 2 -19 0 -25z
m23 -22 c0 -3 -4 -8 -10 -11 -5 -3 -10 -1 -10 4 0 6 5 11 10 11 6 0 10 -2 10
-4z m-1352 -224 c58 -143 80 -202 70 -192 -3 3 -28 61 -56 130 -27 69 -62 152
-76 185 -15 33 -20 52 -12 42 8 -10 41 -84 74 -165z m339 156 c-3 -8 -6 -5 -6
6 -1 11 2 17 5 13 3 -3 4 -12 1 -19z m-1599 -5 c-15 -2 -42 -2 -60 0 -18 2 -6
4 27 4 33 0 48 -2 33 -4z m1609 -35 c-3 -8 -6 -5 -6 6 -1 11 2 17 5 13 3 -3 4
-12 1 -19z m10 -40 c-3 -8 -6 -5 -6 6 -1 11 2 17 5 13 3 -3 4 -12 1 -19z
m-1872 -38 c-3 -5 -12 -10 -18 -10 -7 0 -6 4 3 10 19 12 23 12 15 0z m1882
-22 c-3 -7 -5 -2 -5 12 0 14 2 19 5 13 2 -7 2 -19 0 -25z m10 -50 c-3 -7 -5
-2 -5 12 0 14 2 19 5 13 2 -7 2 -19 0 -25z m-516 -102 c16 -43 28 -80 26 -82
-3 -3 -58 131 -75 181 -14 41 24 -36 49 -99z m543 -28 c4 -43 4 -46 -4 -18
-13 51 -22 133 -11 98 5 -15 12 -51 15 -80z m-590 59 c25 -62 27 -83 1 -28
-26 57 -28 61 -20 61 3 0 11 -15 19 -33z m-2401 -94 c-7 -2 -19 -2 -25 0 -7 3
-2 5 12 5 14 0 19 -2 13 -5z m2461 -73 c5 -17 4 -20 -2 -10 -5 8 -13 26 -16
40 -5 17 -4 20 2 10 5 -8 13 -26 16 -40z m564 -150 c0 -19 -6 6 -13 55 -7 50
-13 104 -13 120 0 17 6 -8 14 -55 7 -47 12 -101 12 -120z m-2458 81 c0 -5 -9
-7 -20 -4 -11 3 -20 7 -20 9 0 2 9 4 20 4 11 0 20 -4 20 -9z m2147 -23 c-3 -8
-6 -5 -6 6 -1 11 2 17 5 13 3 -3 4 -12 1 -19z m1468 -87 c3 -5 2 -12 -3 -15
-5 -3 -9 1 -9 9 0 17 3 19 12 6z m-3007 -18 c-16 -2 -40 -2 -55 0 -16 2 -3 4
27 4 30 0 43 -2 28 -4z m1859 -75 c-2 -18 -4 -6 -4 27 0 33 2 48 4 33 2 -15 2
-42 0 -60z m1160 50 c-3 -8 -6 -5 -6 6 -1 11 2 17 5 13 3 -3 4 -12 1 -19z
m-13 -14 c3 -8 2 -12 -4 -9 -6 3 -10 10 -10 16 0 14 7 11 14 -7z m-3314 -58
c0 -2 -8 -10 -17 -17 -16 -13 -17 -12 -4 4 13 16 21 21 21 13z m2177 -138 c-2
-24 -4 -5 -4 42 0 47 2 66 4 43 2 -24 2 -62 0 -85z m-2714 67 c-7 -21 -13 -19
-13 6 0 11 4 18 10 14 5 -3 7 -12 3 -20z m497 22 c0 -2 -15 -16 -32 -33 l-33
-29 29 33 c28 30 36 37 36 29z m3422 -44 c-6 -2 -10 -8 -8 -12 3 -4 -1 -8 -9
-8 -8 0 -16 6 -19 14 -4 9 3 13 22 12 15 0 21 -3 14 -6z m-3695 -9 c-3 -3 -12
-4 -19 -1 -8 3 -5 6 6 6 11 1 17 -2 13 -5z m343 -44 c-5 -22 -8 -27 -9 -13 -1
21 9 56 14 51 2 -2 0 -19 -5 -38z m-1510 4 c0 -2 -7 -4 -15 -4 -8 0 -15 4 -15
10 0 5 7 7 15 4 8 -4 15 -8 15 -10z m4860 0 c0 -8 -4 -12 -10 -9 -5 3 -10 10
-10 16 0 5 5 9 10 9 6 0 10 -7 10 -16z m-3509 -17 c-10 -9 -11 -8 -5 6 3 10 9
15 12 12 3 -3 0 -11 -7 -18z m-30 -35 c-5 -10 -18 -25 -27 -33 -11 -9 -9 -2 6
19 26 35 36 42 21 14z m236 -14 c-3 -7 -5 -2 -5 12 0 14 2 19 5 13 2 -7 2 -19
0 -25z m3270 -20 c-3 -7 -5 -2 -5 12 0 14 2 19 5 13 2 -7 2 -19 0 -25z m-3336
-38 c-5 -25 -9 -35 -10 -24 -1 28 11 92 16 79 1 -6 -1 -30 -6 -55z m3399 44
c0 -8 -19 -13 -24 -6 -3 5 1 9 9 9 8 0 15 -2 15 -3z m-4393 -36 c-3 -8 -6 -5
-6 6 -1 11 2 17 5 13 3 -3 4 -12 1 -19z m410 -15 c-3 -10 -5 -4 -5 12 0 17 2
24 5 18 2 -7 2 -21 0 -30z m373 24 c0 -2 -10 -12 -22 -23 l-23 -19 19 23 c18
21 26 27 26 19z m3571 -22 c5 14 7 8 7 -23 -1 -49 -14 -44 -21 8 -2 19 -2 26
1 15 l4 -20 9 20z m36 -17 c-3 -7 -5 -2 -5 12 0 14 2 19 5 13 2 -7 2 -19 0
-25z m-4590 -10 c-3 -7 -5 -2 -5 12 0 14 2 19 5 13 2 -7 2 -19 0 -25z m184 15
c12 -16 12 -17 -1 -7 -8 7 -24 14 -35 17 -19 4 -19 5 1 6 12 0 28 -7 35 -16z
m1079 13 c0 -2 -7 -7 -16 -10 -8 -3 -12 -2 -9 4 6 10 25 14 25 6z m-1020 -16
c12 -7 10 -9 -8 -7 -12 0 -22 5 -22 9 0 11 12 10 30 -2z m517 -12 c-3 -8 -6
-5 -6 6 -1 11 2 17 5 13 3 -3 4 -12 1 -19z m-430 -4 c-3 -3 -12 -4 -19 -1 -8
3 -5 6 6 6 11 1 17 -2 13 -5z m138 -1 c-11 -3 -25 -12 -32 -20 -9 -12 -17 -13
-40 -4 -28 11 -28 11 -2 6 17 -3 31 1 39 10 7 8 22 14 34 14 20 -1 20 -2 1 -6z
m438 -33 c-23 -22 -48 -40 -55 -40 -7 0 1 8 17 19 17 10 39 28 49 40 11 11 22
21 25 21 3 0 -13 -18 -36 -40z m-756 -2 c-3 -7 -5 -2 -5 12 0 14 2 19 5 13 2
-7 2 -19 0 -25z m370 26 c-3 -3 -12 -4 -19 -1 -8 3 -5 6 6 6 11 1 17 -2 13 -5z
m81 -23 c-1 -4 -19 -2 -38 5 l-35 14 33 -6 c23 -4 32 -2 33 8 0 10 2 10 6 1 2
-7 3 -17 1 -22z m881 3 c10 -9 -35 -3 -49 6 -11 8 -7 9 15 4 17 -4 32 -8 34
-10z m-1492 -26 c-3 -7 -5 -2 -5 12 0 14 2 19 5 13 2 -7 2 -19 0 -25z m1190 0
c-3 -7 -5 -2 -5 12 0 14 2 19 5 13 2 -7 2 -19 0 -25z m-827 12 c8 -5 11 -10 5
-10 -5 0 -17 5 -25 10 -8 5 -10 10 -5 10 6 0 17 -5 25 -10z m4218 -70 c0 -22
-1 -22 -8 5 -4 17 -8 39 -8 50 0 16 2 15 8 -5 4 -14 8 -36 8 -50z m-3333 43
c-5 -16 -34 -245 -35 -281 0 -8 9 -11 28 -7 24 5 24 4 -8 -13 -32 -17 -57 -20
-35 -4 6 4 10 27 10 52 1 56 23 249 31 261 9 16 16 10 9 -8z m-1098 -25 c-3
-7 -5 -2 -5 12 0 14 2 19 5 13 2 -7 2 -19 0 -25z m-160 -15 c-3 -10 -5 -4 -5
12 0 17 2 24 5 18 2 -7 2 -21 0 -30z m503 27 c8 -5 11 -10 5 -10 -5 0 -17 5
-25 10 -8 5 -10 10 -5 10 6 0 17 -5 25 -10z m440 0 c0 -5 -5 -10 -11 -10 -5 0
-7 5 -4 10 3 6 8 10 11 10 2 0 4 -4 4 -10z m247 -37 c-3 -10 -5 -2 -5 17 0 19
2 27 5 18 2 -10 2 -26 0 -35z m-617 16 l36 -11 -11 -82 c-7 -44 -16 -121 -20
-170 l-7 -88 -38 6 c-27 4 -41 2 -50 -9 -11 -13 -5 -18 34 -36 47 -20 47 -20
41 -62 -3 -23 -10 -100 -15 -171 -6 -71 -12 -131 -14 -134 -6 -5 -150 41 -157
51 -3 5 -9 1 -12 -8 -4 -9 -3 -14 2 -11 4 3 6 -5 4 -17 l-4 -22 -80 24 c-43
14 -79 29 -79 33 0 4 12 3 26 -2 16 -7 23 -7 19 0 -3 6 -13 10 -20 10 -8 0
-19 9 -25 20 -6 11 -27 27 -47 35 -20 8 -34 18 -30 21 7 8 69 -25 84 -45 9
-13 10 -10 6 14 -4 23 -3 27 7 19 9 -9 19 -8 41 5 25 14 29 22 29 63 0 28 5
48 13 51 8 4 8 8 2 14 -5 4 -12 19 -13 33 -3 21 -2 22 11 11 9 -7 14 -18 11
-26 -3 -7 -1 -16 5 -20 6 -3 11 0 11 8 0 8 10 22 22 33 12 10 18 14 15 8 -4
-7 2 -14 14 -17 26 -7 16 -27 -14 -28 -24 -1 -18 -4 27 -14 23 -5 27 -8 15
-16 -9 -6 -10 -9 -1 -9 6 0 12 -7 12 -15 0 -8 5 -15 10 -15 6 0 10 8 10 17 0
12 7 9 28 -14 15 -16 35 -33 45 -36 14 -5 17 0 17 32 0 21 3 53 7 71 4 24 3
31 -5 26 -8 -5 -12 6 -13 36 0 24 -3 37 -6 30 -3 -9 -12 -5 -29 13 -13 14 -21
32 -18 40 7 18 45 29 72 21 18 -6 20 3 32 116 22 195 21 199 -20 214 -44 16
-30 18 20 3z m-423 -46 c-3 -10 -5 -4 -5 12 0 17 2 24 5 18 2 -7 2 -21 0 -30z
m628 17 c8 -13 -25 -13 -45 0 -12 8 -9 10 12 10 15 0 30 -4 33 -10z m145 5 c0
-2 -10 -9 -22 -15 -22 -11 -22 -10 -4 4 21 17 26 19 26 11z m-930 -35 c0 -16
-4 -30 -8 -30 -5 0 -7 14 -4 30 2 17 6 30 8 30 2 0 4 -13 4 -30z m853 -7 c-7
-2 -21 -2 -30 0 -10 3 -4 5 12 5 17 0 24 -2 18 -5z m-1353 -13 c0 -5 -2 -10
-4 -10 -3 0 -8 5 -11 10 -3 6 -1 10 4 10 6 0 11 -4 11 -10z m647 -37 c-3 -10
-5 -4 -5 12 0 17 2 24 5 18 2 -7 2 -21 0 -30z m1040 0 c-3 -10 -5 -4 -5 12 0
17 2 24 5 18 2 -7 2 -21 0 -30z m2454 14 c-10 -9 -11 -8 -5 6 3 10 9 15 12 12
3 -3 0 -11 -7 -18z m-3896 -1 c19 -8 35 -21 35 -28 0 -10 -2 -10 -8 -1 -4 7
-26 19 -47 27 -22 8 -34 15 -27 15 7 1 28 -6 47 -13z m1012 -8 c-3 -8 -6 -5
-6 6 -1 11 2 17 5 13 3 -3 4 -12 1 -19z m-767 -28 c0 -32 -4 -40 -17 -39 -11
0 -13 3 -5 6 6 2 12 20 12 39 0 19 2 34 5 34 3 0 5 -18 5 -40z m757 -37 c-3
-10 -5 -2 -5 17 0 19 2 27 5 18 2 -10 2 -26 0 -35z m-1300 0 c-3 -10 -5 -4 -5
12 0 17 2 24 5 18 2 -7 2 -21 0 -30z m1728 -50 c-6 -76 -10 -90 -34 -114 -26
-25 -131 -179 -244 -356 -26 -40 -57 -79 -70 -88 -26 -16 -83 -36 -89 -30 -3
3 28 367 31 371 1 1 11 -1 24 -3 29 -5 62 19 54 40 -5 12 -15 15 -42 10 l-37
-6 7 69 c10 90 18 98 13 12 -2 -44 0 -68 7 -68 19 1 45 27 45 45 0 25 9 15 13
-16 5 -30 27 -28 63 6 15 14 33 25 40 25 8 0 14 6 14 13 0 8 3 8 9 -2 5 -8 7
-20 4 -28 -3 -7 1 -13 10 -13 13 0 29 -21 31 -43 1 -4 7 -11 14 -16 11 -7 11
-9 -2 -14 -9 -4 -16 -14 -16 -22 0 -9 5 -13 10 -10 6 4 7 11 4 17 -4 7 -2 8 4
4 6 -3 16 2 21 13 9 16 7 20 -9 24 -17 4 -16 4 2 3 32 -2 90 72 74 94 -9 13
-9 13 6 2 15 -12 18 -11 22 10 8 33 15 99 16 131 0 15 3 27 6 27 4 0 3 -39 -1
-87z m-1415 61 c0 -2 -11 -4 -25 -4 -14 0 -25 4 -25 9 0 4 11 6 25 3 14 -2 25
-6 25 -8z m171 -3 c-39 -11 -36 -30 8 -49 31 -13 39 -21 36 -37 -3 -11 -12
-87 -20 -169 -8 -82 -17 -151 -19 -153 -3 -3 -298 85 -304 92 -2 1 8 5 22 7
14 3 23 2 21 -3 -7 -10 103 -42 122 -35 9 4 11 2 7 -6 -5 -8 -2 -9 9 -5 10 3
17 3 17 -2 0 -14 54 -20 62 -8 5 8 8 6 8 -5 0 -10 7 -18 15 -18 9 0 15 10 15
26 0 14 -4 23 -10 19 -5 -3 -10 -2 -10 3 0 6 6 12 13 15 8 3 17 44 25 114 16
145 17 140 -23 159 -19 9 -35 22 -35 28 0 19 22 36 45 35 17 -1 17 -2 -4 -8z
m206 -23 c-3 -7 -5 -2 -5 12 0 14 2 19 5 13 2 -7 2 -19 0 -25z m592 -168 c-10
-85 -21 -204 -24 -265 -4 -60 -9 -121 -10 -135 -2 -14 -4 -32 -4 -42 -1 -11
-7 -15 -22 -11 -15 4 -19 11 -15 27 3 11 6 39 7 61 0 31 2 35 9 20 7 -19 8
-19 14 5 4 14 7 75 9 136 1 62 5 110 10 107 4 -2 7 5 7 16 0 12 -4 21 -10 21
-5 0 -10 14 -10 31 0 22 4 30 14 26 10 -4 15 12 20 70 5 66 13 101 20 91 2 -2
-5 -73 -15 -158z m68 123 c-3 -10 -5 -4 -5 12 0 17 2 24 5 18 2 -7 2 -21 0
-30z m3893 15 c0 -18 -2 -20 -9 -8 -6 8 -7 18 -5 22 9 14 14 9 14 -14z m-3973
-10 c-3 -8 -6 -5 -6 6 -1 11 2 17 5 13 3 -3 4 -12 1 -19z m-1283 -62 c-4 -37
-9 -64 -12 -62 -2 3 -1 35 3 71 4 37 9 65 11 62 3 -2 2 -34 -2 -71z m4101 64
c-3 -5 -16 -15 -28 -21 -21 -10 -21 -9 2 10 25 23 36 27 26 11z m-3419 -154
c-9 -74 -16 -157 -16 -183 0 -57 -9 -76 -30 -63 -13 8 -13 10 1 10 13 0 17 11
18 53 0 28 8 108 16 177 8 69 15 134 16 145 0 11 3 15 5 8 3 -7 -2 -73 -10
-147z m124 139 c19 -7 28 -13 20 -13 -8 0 -31 6 -50 13 -19 7 -28 13 -20 13 8
0 31 -6 50 -13z m1143 8 c3 -5 -18 -9 -47 -10 -35 -1 -45 2 -31 7 26 11 72 12
78 3z m60 -10 c-7 -2 -21 -2 -30 0 -10 3 -4 5 12 5 17 0 24 -2 18 -5z m86 -9
c10 -9 -45 -3 -59 6 -11 7 -5 8 20 4 19 -4 37 -8 39 -10z m1727 -12 c-18 -16
-18 -16 -6 6 6 13 14 21 18 18 3 -4 -2 -14 -12 -24z m-2918 -15 c12 -16 11
-21 -4 -38 -20 -23 -51 -24 -89 -5 -24 13 -29 12 -46 -5 -11 -11 -24 -36 -29
-57 l-10 -37 5 40 c2 22 11 45 20 51 19 14 20 28 0 20 -9 -3 -15 0 -15 10 0
12 4 12 20 4 11 -6 20 -9 20 -6 0 2 22 -2 49 -9 74 -19 112 11 49 40 -29 13
-30 14 -8 12 14 -1 31 -10 38 -20z m606 -2 c3 -8 1 -15 -4 -15 -6 0 -10 7 -10
15 0 8 2 15 4 15 2 0 6 -7 10 -15z m-237 -32 c-3 -10 -5 -4 -5 12 0 17 2 24 5
18 2 -7 2 -21 0 -30z m3990 -10 c-3 -10 -5 -2 -5 17 0 19 2 27 5 18 2 -10 2
-26 0 -35z m-3192 -13 c50 -11 69 -17 43 -14 -27 3 -57 0 -69 -6 -15 -8 -19
-9 -15 -1 7 10 -12 16 -41 12 -7 -1 -13 3 -13 9 0 5 -20 10 -45 10 -25 0 -45
-4 -45 -10 0 -5 -7 -7 -15 -4 -8 4 -15 1 -15 -6 0 -7 -7 -10 -17 -6 -15 5 -15
4 1 -9 14 -11 23 -12 32 -4 7 6 18 8 23 4 7 -4 8 1 4 12 -3 10 -2 14 2 10 5
-4 8 -23 7 -42 -2 -26 2 -35 18 -40 26 -8 26 -25 0 -32 -34 -9 -22 -28 29 -50
44 -18 49 -24 44 -44 -3 -13 -11 -28 -18 -34 -25 -21 -14 -30 47 -42 l63 -11
-74 1 c-61 2 -75 -1 -85 -16 -17 -28 10 -42 126 -61 56 -9 104 -19 106 -21 3
-2 -21 -3 -53 -2 -55 2 -59 1 -74 -28 -23 -43 -24 -56 -5 -53 17 3 19 -3 29
-71 5 -33 5 -34 -14 -17 -12 11 -21 14 -26 7 -3 -6 1 -11 9 -11 9 0 16 -3 17
-7 0 -5 2 -16 4 -25 2 -10 -2 -18 -8 -18 -7 0 -4 -7 6 -14 9 -7 17 -20 17 -29
0 -9 11 -17 28 -20 15 -2 7 -3 -18 -1 -216 18 -255 17 -304 -5 l-48 -21 7 153
7 152 29 23 c43 34 35 86 -9 58 -14 -8 -14 -9 6 223 4 46 12 76 20 79 8 2 10
-2 5 -15 -3 -10 -3 -15 1 -11 4 3 9 14 10 23 7 45 124 56 271 25z m2250 -36
c-27 -24 -63 -52 -80 -61 -36 -19 -35 -18 40 43 33 26 62 51 63 56 2 4 9 8 15
8 7 -1 -10 -21 -38 -46z m-3951 20 c3 -8 2 -12 -4 -9 -6 3 -10 10 -10 16 0 14
7 11 14 -7z m1823 -10 c-3 -3 -12 -4 -19 -1 -8 3 -5 6 6 6 11 1 17 -2 13 -5z
m-468 -58 c-22 -20 -23 -20 -6 0 9 11 18 29 18 40 1 18 2 18 6 0 3 -11 -4 -27
-18 -40z m508 48 c-3 -3 -12 -4 -19 -1 -8 3 -5 6 6 6 11 1 17 -2 13 -5z
m-2250 -26 c-3 -8 -6 -5 -6 6 -1 11 2 17 5 13 3 -3 4 -12 1 -19z m670 -20 c-3
-7 -5 -2 -5 12 0 14 2 19 5 13 2 -7 2 -19 0 -25z m-667 -12 c0 -3 -4 -8 -10
-11 -5 -3 -10 -1 -10 4 0 6 5 11 10 11 6 0 10 -2 10 -4z m3688 -31 c-6 -14
-13 -23 -15 -21 -5 5 15 46 22 46 3 0 -1 -11 -7 -25z m1572 -5 c5 0 11 6 13
13 3 7 6 7 6 1 1 -6 -8 -19 -19 -29 -20 -18 -20 -17 -19 16 1 19 3 26 6 17 2
-10 8 -18 13 -18z m-4175 10 c3 -5 1 -10 -4 -10 -6 0 -11 5 -11 10 0 6 2 10 4
10 3 0 8 -4 11 -10z m-895 -10 c13 -9 13 -10 0 -10 -8 0 -22 5 -30 10 -13 9
-13 10 0 10 8 0 22 -5 30 -10z m1840 0 c-13 -9 -13 -11 0 -20 8 -5 11 -10 5
-10 -5 0 -17 5 -25 10 -13 9 -13 11 0 20 8 5 20 10 25 10 6 0 3 -5 -5 -10z
m-2210 -4 c0 -2 -8 -10 -17 -17 -16 -13 -17 -12 -4 4 13 16 21 21 21 13z m573
-17 c-8 -8 -16 -8 -30 0 -16 11 -16 11 5 6 14 -4 22 -2 22 6 0 7 3 9 7 6 4 -4
2 -12 -4 -18z m1327 -115 c-5 -70 -13 -207 -17 -303 -5 -154 -9 -178 -26 -196
-18 -19 -100 -155 -205 -340 -60 -106 -86 -134 -136 -142 l-36 -6 0 159 0 160
43 14 c58 21 57 46 -2 42 l-44 -4 6 108 c4 59 7 131 7 161 0 50 1 53 25 53 15
0 40 7 58 16 35 18 107 87 107 104 0 5 4 10 8 10 5 0 17 7 28 16 10 8 13 13 7
9 -20 -10 -15 11 10 42 13 15 36 49 51 76 15 26 32 47 38 47 7 0 7 -5 -1 -14
-9 -11 -9 -16 0 -22 8 -5 9 -3 5 5 -5 8 0 14 13 18 12 3 21 10 21 17 1 6 7 0
15 -14 14 -24 14 -22 14 35 0 54 -1 58 -14 41 -8 -10 -12 -23 -9 -28 3 -4 -2
-11 -10 -14 -9 -3 -13 -11 -9 -18 4 -7 2 -7 -7 1 -11 10 -10 17 5 40 17 28 57
64 63 59 1 -2 -2 -61 -8 -132z m-1690 116 c0 -5 -2 -10 -4 -10 -3 0 -8 5 -11
10 -3 6 -1 10 4 10 6 0 11 -4 11 -10z m627 -22 c-3 -7 -5 -2 -5 12 0 14 2 19
5 13 2 -7 2 -19 0 -25z m604 -68 c-7 -67 -9 -70 -10 -25 -1 53 11 140 16 115
2 -8 -1 -49 -6 -90z m-1276 59 c11 -16 2 -17 -25 -2 -24 12 -24 13 -3 13 12 0
25 -5 28 -11z m-14 -144 c-5 -47 -9 -63 -10 -40 -1 47 12 157 16 135 2 -8 -1
-51 -6 -95z m289 76 c52 -15 130 -39 173 -52 l78 -24 -7 -155 c-3 -85 -7 -156
-8 -157 -1 -2 -16 1 -33 6 -21 6 -35 5 -42 -2 -18 -18 -13 -26 29 -38 l40 -12
0 -164 c0 -128 -3 -164 -12 -160 -7 3 -93 31 -192 63 l-178 59 6 59 c3 32 6
81 6 108 0 36 3 47 13 42 10 -6 10 -4 0 7 -7 7 -13 22 -12 33 0 12 3 15 6 9 2
-7 8 -13 13 -13 13 0 19 26 9 41 -8 12 -10 12 -19 -1 -7 -11 -10 -11 -10 -2 0
21 26 24 80 8 54 -16 70 -14 70 8 0 11 -66 41 -138 62 -15 4 -7 24 9 24 6 0 7
-4 4 -10 -3 -5 -1 -10 5 -10 7 0 9 8 5 19 -4 15 0 20 17 23 15 2 24 11 26 26
2 16 8 22 18 18 8 -3 14 -1 14 4 0 6 9 19 19 29 16 16 17 20 5 25 -10 4 -12 2
-8 -6 4 -7 3 -8 -5 -4 -7 5 -9 16 -5 28 5 15 3 19 -7 13 -11 -6 -12 -5 -1 6
17 18 15 29 -5 29 -13 0 -14 3 -5 12 17 17 15 24 -9 24 -17 0 -20 -5 -17 -28
4 -22 1 -27 -16 -25 -13 1 -22 -6 -27 -23 -5 -17 -7 -5 -8 39 -1 63 7 81 11
27 l2 -27 19 25 c19 26 60 35 72 16 3 -5 18 -10 33 -9 20 1 15 5 -23 16 -27 8
-58 19 -68 24 -10 5 -22 7 -27 4 -6 -4 -10 -1 -10 4 0 15 2 15 110 -18z m528
-46 c-3 -3 -9 2 -12 12 -6 14 -5 15 5 6 7 -7 10 -15 7 -18z m-81 -27 c-3 -8
-6 -5 -6 6 -1 11 2 17 5 13 3 -3 4 -12 1 -19z m1436 15 c-7 -2 -19 -2 -25 0
-7 3 -2 5 12 5 14 0 19 -2 13 -5z m3177 -46 c-1 -13 -35 -57 -44 -57 -16 0 -4
29 14 35 16 5 19 12 14 27 -4 14 -2 18 5 14 6 -4 11 -13 11 -19z m-4666 -13
c13 -5 15 -16 10 -63 -4 -31 -11 -63 -16 -71 -7 -12 -8 -10 -4 5 12 49 11 120
-1 118 -7 -2 -13 2 -13 7 0 12 3 12 24 4z m-17 -56 c-3 -7 -5 -2 -5 12 0 14 2
19 5 13 2 -7 2 -19 0 -25z m129 23 c16 -6 103 -33 192 -61 153 -48 163 -53
158 -73 -3 -12 -6 -84 -7 -160 -2 -121 -4 -137 -18 -132 -9 4 -28 9 -43 12
-23 5 -28 2 -28 -14 0 -14 11 -24 40 -33 l40 -13 0 -163 0 -162 -76 24 c-77
25 -94 24 -94 -3 0 -8 -6 -13 -12 -11 -7 3 -43 15 -80 27 -38 13 -68 28 -68
35 0 22 -38 49 -70 50 -16 1 -30 2 -30 3 0 1 10 11 21 22 l21 20 -21 -6 c-19
-5 -21 -2 -16 18 3 13 7 77 9 142 2 64 5 120 8 123 4 3 39 -4 78 -16 52 -15
76 -18 83 -11 17 17 -4 31 -90 61 -43 15 -77 31 -77 36 1 5 5 42 8 83 3 41 12
81 18 89 8 10 9 13 2 9 -7 -4 -14 2 -17 14 -4 16 -3 18 9 8 18 -15 18 0 -1 25
-19 25 -19 36 0 36 8 0 15 -5 15 -10 0 -6 8 -5 20 2 18 12 18 13 -8 24 -33 15
-7 18 34 5z m-686 -23 c0 -18 -2 -20 -9 -8 -6 8 -7 18 -5 22 9 14 14 9 14 -14z
m2137 16 c-3 -3 -12 -4 -19 -1 -8 3 -5 6 6 6 11 1 17 -2 13 -5z m-2075 -39 c3
-13 1 -22 -3 -19 -9 5 -13 44 -5 44 2 0 6 -11 8 -25z m5166 -40 c-4 -60 -22
-51 -28 12 -5 47 -4 50 12 42 14 -8 18 -20 16 -54z m-5555 38 c-7 -2 -19 -2
-25 0 -7 3 -2 5 12 5 14 0 19 -2 13 -5z m207 -13 c0 -14 -7 -20 -23 -20 -28 0
-47 -17 -40 -36 3 -8 0 -14 -6 -14 -17 0 -13 34 7 50 9 9 25 14 35 12 10 -2
17 3 17 12 0 9 2 16 5 16 3 0 5 -9 5 -20z m-170 -25 c0 -13 -3 -26 -7 -28 -5
-3 -8 10 -8 28 0 18 3 31 8 28 4 -2 7 -15 7 -28z m1435 5 c3 -5 1 -10 -4 -10
-6 0 -11 5 -11 10 0 6 2 10 4 10 3 0 8 -4 11 -10z m-598 -22 c-3 -8 -6 -5 -6
6 -1 11 2 17 5 13 3 -3 4 -12 1 -19z m633 -8 c0 -5 5 -10 11 -10 5 0 8 4 5 8
-3 5 2 9 10 9 13 0 13 -2 0 -15 -12 -13 -17 -12 -37 2 -19 13 -20 16 -6 16 9
0 17 -4 17 -10z m-1260 -10 c0 -5 -2 -10 -4 -10 -3 0 -8 5 -11 10 -3 6 -1 10
4 10 6 0 11 -4 11 -10z m-247 -7 c-7 -2 -21 -2 -30 0 -10 3 -4 5 12 5 17 0 24
-2 18 -5z m203 -30 c-3 -10 -6 -82 -8 -161 l-3 -143 -24 3 c-27 3 -47 -21 -38
-46 4 -9 17 -16 32 -16 l25 0 0 -130 c0 -134 -3 -144 -40 -120 -12 8 -11 10 8
10 13 0 22 6 22 16 0 8 -3 13 -7 11 -5 -3 -6 33 -3 79 4 63 2 84 -7 84 -7 0
-13 5 -13 11 0 6 8 8 18 5 9 -3 2 6 -16 21 -18 16 -32 35 -32 43 0 25 29 60
45 54 17 -7 21 26 6 42 -6 5 -6 27 -1 54 5 25 6 56 3 69 -4 16 -2 22 5 17 7
-4 10 10 9 44 -1 32 -6 50 -14 50 -7 0 -13 5 -13 10 0 6 12 10 26 10 19 0 24
-4 20 -17z m1298 11 c18 -7 22 -60 6 -84 -8 -12 -10 -10 -10 10 0 20 -2 22
-10 10 -7 -11 -10 -4 -10 28 0 45 0 45 24 36z m4039 -9 c-3 -9 -8 -14 -10 -11
-3 3 -2 9 2 15 9 16 15 13 8 -4z m-4648 -265 c-6 -185 -10 -230 -21 -230 -16
0 -19 17 -4 22 5 2 10 70 11 158 3 188 9 293 16 286 3 -3 2 -109 -2 -236z
m-15 220 c0 -5 -4 -10 -10 -10 -5 0 -10 5 -10 10 0 6 5 10 10 10 6 0 10 -4 10
-10z m2923 -30 c-3 -12 -8 -19 -11 -16 -5 6 5 36 12 36 2 0 2 -9 -1 -20z
m-2315 -12 c-2 -6 -10 -13 -16 -14 -7 -1 -8 0 -2 3 5 2 8 9 4 14 -3 5 0 9 6 9
7 0 10 -5 8 -12z m52 -22 c0 -8 -9 -12 -23 -11 -15 2 -24 -2 -24 -11 0 -10 4
-11 13 -3 8 7 14 7 19 -1 4 -6 3 -10 -2 -9 -4 1 -19 -2 -33 -8 l-25 -10 23 -7
23 -8 -3 -254 c-2 -140 -5 -254 -8 -254 -3 0 -12 5 -20 10 -13 8 -12 10 3 10
9 0 17 7 17 16 0 10 -6 14 -15 10 -13 -5 -15 25 -15 229 0 225 -1 234 -20 240
-11 3 -20 11 -20 17 0 6 3 8 7 5 4 -4 18 4 32 17 14 13 35 26 46 29 11 3 21 5
23 6 1 0 2 -5 2 -13z m2590 -10 c0 -3 -4 -8 -10 -11 -5 -3 -10 -1 -10 4 0 6 5
11 10 11 6 0 10 -2 10 -4z m-3263 -58 c-3 -8 -6 -5 -6 6 -1 11 2 17 5 13 3 -3
4 -12 1 -19z m4690 -35 c-3 -10 -5 -2 -5 17 0 19 2 27 5 18 2 -10 2 -26 0 -35z
m-3237 7 c104 -19 104 -19 35 -15 -38 2 -60 1 -47 -2 l23 -4 -25 -20 c-26 -20
-29 -38 -11 -51 6 -5 4 -8 -5 -8 -13 0 -13 -1 0 -10 13 -9 13 -11 0 -20 -11
-7 -11 -10 -2 -10 7 0 10 -4 7 -10 -3 -5 -1 -10 4 -10 16 0 9 -43 -9 -57 -13
-9 -10 -12 15 -18 56 -12 50 -14 -40 -12 -84 2 -90 1 -90 -18 0 -20 30 -31
145 -54 l55 -10 -57 4 c-31 3 -59 1 -62 -4 -3 -4 7 -6 22 -4 26 4 26 4 8 -11
-17 -14 -18 -16 -3 -16 22 0 22 -27 0 -70 -12 -24 -13 -35 -5 -38 7 -2 10 -8
6 -13 -3 -5 -12 -2 -20 6 -9 8 -23 14 -32 14 -15 -1 -15 -2 1 -6 19 -5 21 -12
9 -31 -5 -7 -16 -10 -25 -6 -22 8 -22 0 0 -22 16 -15 15 -16 -18 -10 -30 5
-31 5 -9 -5 14 -6 37 -8 53 -5 15 3 27 1 27 -4 0 -5 15 -11 33 -13 17 -2 -4
-1 -48 2 -124 9 -178 5 -225 -18 -24 -12 -44 -21 -44 -21 -1 0 -1 59 -1 131
l1 131 27 16 c15 9 27 22 27 28 0 7 2 18 3 26 2 7 2 10 0 6 -2 -4 -11 -4 -19
-1 -8 3 -20 0 -28 -6 -11 -9 -13 2 -10 66 1 43 3 102 3 130 1 48 4 54 32 68
17 9 37 14 45 11 8 -3 12 -2 9 3 -14 24 90 20 245 -9z m-1453 -177 c-2 -37 -3
-9 -3 62 0 72 1 102 3 68 2 -34 2 -93 0 -130z m1097 140 c-3 -16 -9 -32 -14
-37 -8 -8 -5 15 6 52 7 23 13 12 8 -15z m493 11 c-3 -3 -12 -4 -19 -1 -8 3 -5
6 6 6 11 1 17 -2 13 -5z m50 -10 c-3 -3 -12 -4 -19 -1 -8 3 -5 6 6 6 11 1 17
-2 13 -5z m-2505 -36 c13 -13 17 -18 8 -11 -8 6 -31 16 -50 21 -32 9 -33 10
-8 11 15 1 37 -9 50 -21z m113 -27 c-3 -6 -11 -8 -17 -5 -6 4 -5 9 3 15 16 10
23 4 14 -10z m3904 -66 c-8 -7 -56 -34 -106 -60 l-93 -46 0 -44 c0 -45 -14
-65 -32 -47 -7 7 -8 31 -2 73 l9 63 110 57 c103 53 111 55 119 37 7 -13 5 -23
-5 -33z m-2089 -490 c-10 -11 -66 -114 -125 -228 -113 -220 -135 -247 -197
-247 -26 0 -28 3 -28 38 0 22 -3 80 -6 130 -7 90 -7 92 15 92 30 0 61 18 61
35 0 12 -10 13 -45 8 l-45 -6 0 79 c0 44 -3 103 -6 132 -6 49 -5 52 15 52 31
0 85 24 110 49 12 12 21 18 22 14 0 -5 4 2 10 15 5 14 13 20 20 16 7 -4 9 -3
5 4 -7 12 153 305 182 332 16 16 17 3 24 -239 6 -238 5 -257 -12 -276z m-1947
518 c-7 -2 -19 -2 -25 0 -7 3 -2 5 12 5 14 0 19 -2 13 -5z m4045 -80 c-3 -33
-8 -40 -57 -66 -43 -24 -55 -27 -62 -16 -7 11 -9 11 -9 -2 0 -16 -26 -34 -42
-31 -5 1 -8 -2 -8 -8 0 -5 -4 -10 -10 -10 -5 0 -10 17 -10 38 1 36 3 38 61 64
75 34 73 34 81 6 5 -20 6 -18 7 10 1 37 17 43 24 10 3 -17 5 -14 6 10 0 17 6
32 12 32 6 0 9 -16 7 -37z m-3468 -51 l175 -58 3 -132 3 -132 -26 10 c-36 14
-55 13 -55 -4 0 -9 -8 -12 -26 -8 -20 4 -25 2 -19 -7 4 -7 18 -11 32 -8 14 2
40 0 58 -6 l33 -10 7 -129 c4 -71 6 -130 4 -132 -2 -2 -87 24 -189 58 -117 39
-185 66 -188 76 -3 13 -2 13 7 0 9 -12 11 -11 11 8 0 13 -4 20 -10 17 -5 -3
-10 -1 -10 5 0 20 25 5 28 -17 2 -15 22 -28 72 -48 38 -15 76 -25 84 -22 9 4
16 1 16 -6 0 -9 2 -9 8 1 5 7 16 10 25 6 24 -9 11 24 -20 53 -13 12 -23 29
-23 37 0 19 20 32 29 19 3 -6 17 -13 31 -17 20 -6 22 -5 10 4 -11 9 -12 13 -2
17 6 2 12 12 12 21 0 14 2 14 9 3 11 -17 41 -7 41 14 0 8 -9 15 -21 15 -11 0
-18 4 -15 9 9 14 -42 0 -55 -15 -9 -11 -8 -15 5 -20 9 -3 16 -10 16 -15 0 -14
-28 -11 -34 4 -5 9 -7 9 -12 0 -4 -10 -10 -10 -27 0 -12 7 -24 13 -26 14 -1 1
0 7 4 13 5 8 11 5 20 -7 7 -10 17 -14 22 -10 4 5 -1 13 -11 19 -15 8 -16 12
-5 19 7 4 10 11 7 15 -4 3 -15 -1 -24 -10 -18 -19 -36 -17 -42 5 -3 11 -2 11
7 -1 9 -13 12 -12 25 5 8 11 12 22 10 25 -3 2 -9 -1 -13 -8 -6 -10 -11 -9 -21
3 -9 11 -27 15 -59 13 -45 -3 -46 -2 -49 30 -2 17 -8 32 -13 32 -6 0 -8 -14
-5 -32 7 -40 10 -106 6 -133 -4 -25 -18 75 -19 134 -1 42 0 43 27 38 15 -4 48
-13 73 -21 46 -14 47 -14 51 9 3 15 1 22 -7 19 -6 -3 -41 6 -76 19 l-64 24 -3
103 c-2 89 -1 102 13 97 9 -4 15 -1 15 7 0 8 3 16 8 19 4 2 1 2 -5 1 -7 -2
-13 1 -13 7 0 6 -4 8 -9 4 -5 -3 -12 -1 -16 5 -12 19 30 9 205 -48z m3605
-170 c-12 -12 -13 8 -7 113 l7 110 3 -109 c1 -60 0 -111 -3 -114z m-3332 163
c4 -8 2 -17 -3 -20 -6 -4 -10 3 -10 14 0 25 6 27 13 6z m3886 -1 c10 -9 -35
-3 -49 6 -11 8 -7 9 15 4 17 -4 32 -8 34 -10z m-182 -66 c-3 -7 -5 -2 -5 12 0
14 2 19 5 13 2 -7 2 -19 0 -25z m-3608 -22 c-1 -20 -2 -20 -6 -1 -3 11 -10 27
-17 35 -10 13 -9 13 7 1 9 -7 16 -23 16 -35z m2648 -18 c-2 -13 -4 -3 -4 22 0
25 2 35 4 23 2 -13 2 -33 0 -45z m-2680 -250 c6 -156 9 -284 8 -286 -5 -6 -35
11 -35 20 0 6 7 4 17 -3 15 -13 16 -11 10 21 -3 19 -9 132 -13 250 -4 141 -10
218 -18 222 -8 6 -7 8 2 8 19 0 14 38 -5 43 -15 4 -14 5 3 6 20 1 21 -5 31
-281z m-930 256 c-3 -3 -12 -4 -19 -1 -8 3 -5 6 6 6 11 1 17 -2 13 -5z m5313
-20 c0 -8 -5 -12 -10 -9 -6 4 -8 11 -5 16 9 14 15 11 15 -7z m-4125 -58 l200
-64 3 -130 4 -131 -39 11 c-47 12 -66 27 -59 45 3 7 -1 13 -8 13 -9 0 -13 -12
-12 -37 1 -21 -3 -41 -9 -45 -6 -5 -6 -8 3 -8 6 0 12 -7 12 -15 0 -8 -5 -15
-12 -15 -6 0 -20 -8 -31 -17 -19 -17 -19 -17 -12 7 7 23 7 24 -10 10 -17 -14
-17 -13 -11 10 6 21 5 22 -4 8 -7 -12 -8 -24 -1 -35 7 -15 5 -18 -17 -19 -15
-1 -21 1 -14 3 15 6 16 33 1 33 -6 0 -9 6 -6 14 3 8 -1 17 -10 20 -12 5 -13 9
-3 21 7 8 9 15 5 15 -4 0 3 8 15 18 l23 19 -22 22 c-12 12 -19 26 -16 31 6 9
-46 3 -55 -7 -3 -3 5 -4 16 -1 17 4 23 -1 32 -28 5 -19 6 -32 1 -28 -5 3 -9
-7 -9 -21 0 -18 -4 -24 -12 -19 -7 4 -4 -3 7 -17 14 -17 15 -20 3 -10 -9 7
-22 10 -27 7 -5 -4 -13 -2 -16 4 -4 7 -11 7 -18 2 -18 -14 -46 -11 -40 5 3 7
9 13 15 13 5 0 6 -4 3 -10 -12 -20 12 -9 35 15 l23 24 -34 -10 c-19 -6 -39
-11 -46 -12 -7 0 -10 -4 -7 -9 3 -4 -2 -8 -11 -8 -13 0 -14 4 -5 20 6 10 16
17 23 14 7 -2 24 0 38 6 21 9 20 10 -11 5 -25 -3 -31 -2 -20 5 8 5 11 10 7 10
-5 0 -19 -8 -31 -17 -20 -16 -22 -27 -22 -98 l1 -80 45 2 c32 1 39 -1 25 -7
-11 -5 -30 -9 -42 -9 -31 -1 -29 -21 2 -21 16 0 32 -11 46 -30 14 -18 35 -32
56 -36 18 -3 36 -11 40 -17 4 -6 -2 -8 -18 -3 -13 3 -36 9 -51 12 -17 4 -28
14 -30 28 -2 14 -14 25 -37 32 -18 6 -37 17 -41 25 -4 8 -10 59 -12 115 -3 93
-2 101 14 96 25 -6 22 15 -3 23 -11 4 -19 9 -16 11 2 2 33 -5 68 -16 75 -23
99 -25 99 -7 0 8 -30 24 -72 38 -103 33 -105 35 -98 114 3 36 4 68 1 71 -2 2
-5 23 -6 46 -1 24 0 37 2 31 5 -15 43 -17 43 -3 0 6 -6 10 -14 10 -8 0 -18 5
-21 10 -10 16 -2 14 210 -54z m-994 -13 c29 -5 29 -6 29 -82 1 -42 3 -101 6
-132 l6 -56 -31 5 c-27 4 -31 1 -31 -17 0 -15 10 -26 33 -36 36 -16 22 -20
-18 -5 -21 8 -26 16 -23 38 2 21 9 28 31 30 16 2 27 9 27 18 0 8 -3 13 -7 11
-5 -3 -8 42 -7 99 0 57 -1 102 -4 100 -2 -3 -11 1 -19 9 -8 8 -21 18 -30 23
-11 7 -13 15 -7 33 l9 24 3 -28 c3 -22 10 -29 33 -34z m3626 -10 c-2 -16 -4
-5 -4 22 0 28 2 40 4 28 2 -13 2 -35 0 -50z m-2920 -155 c-1 -40 -3 -10 -3 67
0 77 1 110 3 73 2 -37 2 -100 0 -140z m-873 183 c3 -4 -6 -6 -19 -3 -14 2 -25
6 -25 8 0 8 39 4 44 -5z m3593 -48 c-3 -10 -5 -4 -5 12 0 17 2 24 5 18 2 -7 2
-21 0 -30z m-2167 6 c0 -6 -4 -7 -10 -4 -5 3 -10 11 -10 16 0 6 5 7 10 4 6 -3
10 -11 10 -16z m40 11 c0 -5 -5 -10 -11 -10 -5 0 -7 5 -4 10 3 6 8 10 11 10 2
0 4 -4 4 -10z m66 -38 c-10 -11 -16 -12 -16 -4 0 7 5 12 10 12 6 0 10 8 11 18
0 11 2 13 6 4 3 -8 -2 -21 -11 -30z m-1366 3 c0 -8 -4 -15 -10 -15 -5 0 -10 7
-10 15 0 8 5 15 10 15 6 0 10 -7 10 -15z m1330 5 c0 -5 -7 -7 -15 -4 -8 4 -15
8 -15 10 0 2 7 4 15 4 8 0 15 -4 15 -10z m2651 -17 c13 -16 12 -17 -3 -4 -10
7 -18 15 -18 17 0 8 8 3 21 -13z m-2627 -195 c4 -101 11 -228 16 -283 5 -55 7
-101 5 -103 -2 -2 -12 1 -22 7 -17 10 -17 10 0 11 16 0 23 11 12 22 -3 3 -8
45 -10 94 -9 190 -19 328 -23 306 -6 -40 -22 -12 -22 39 0 32 4 48 10 44 6 -4
8 -11 5 -16 -4 -5 -1 -17 4 -26 8 -14 10 -7 11 31 0 39 -3 47 -15 42 -8 -3
-15 -1 -15 4 0 6 8 10 18 10 17 0 19 -14 26 -182z m884 145 c-10 -2 -26 -2
-35 0 -10 3 -2 5 17 5 19 0 27 -2 18 -5z m-163 -47 l70 -12 -127 0 c-95 1
-130 -2 -140 -13 -11 -11 -9 -12 12 -7 21 6 22 5 7 -4 -9 -6 -14 -17 -10 -23
3 -7 -3 -3 -15 7 -12 11 -22 15 -23 10 0 -10 4 -207 5 -240 1 -12 7 -20 16
-19 8 1 9 0 3 -2 -20 -7 -15 -27 9 -38 12 -6 26 -18 32 -27 9 -15 5 -23 -22
-48 -45 -40 -54 -38 -14 3 28 29 31 35 18 52 -8 11 -20 16 -29 12 -19 -7 -23
19 -32 193 l-7 115 32 19 c65 38 104 42 215 22z m102 -22 c-3 -3 -12 -4 -19
-1 -8 3 -5 6 6 6 11 1 17 -2 13 -5z m-1831 -24 c0 -12 -4 -16 -9 -11 -5 5 -6
14 -3 20 10 15 12 14 12 -9z m-511 -20 c13 -5 14 -9 5 -9 -8 0 -24 4 -35 9
-13 5 -14 9 -5 9 8 0 24 -4 35 -9z m548 -10 c3 -12 0 -20 -8 -20 -8 0 -11 8
-8 20 3 11 7 20 8 20 1 0 5 -9 8 -20z m950 -82 c2 -43 1 -78 -4 -78 -5 0 -9
37 -9 82 0 101 6 99 13 -4z m463 15 c-1 -27 2 -122 6 -213 l6 -165 -13 155
c-7 85 -14 171 -14 190 -1 29 -3 32 -12 17 -5 -9 -7 -23 -3 -30 5 -9 4 -9 -5
-1 -10 9 -8 21 11 53 12 22 23 41 24 41 1 0 1 -21 0 -47z m-1079 -65 c-2 -18
-4 -4 -4 32 0 36 2 50 4 33 2 -18 2 -48 0 -65z m452 25 c39 -10 36 0 45 -165
l6 -107 -72 20 c-82 23 -88 26 -88 42 0 8 3 9 8 1 6 -9 113 -44 134 -44 7 0
-1 118 -9 140 -3 8 -5 24 -4 35 1 15 0 17 -7 6 -7 -10 -11 -10 -17 -1 -4 6
-13 9 -19 7 -7 -3 -13 1 -13 8 0 10 5 11 19 4 15 -8 18 -6 18 11 0 11 -5 20
-11 20 -5 0 -7 -4 -4 -10 3 -6 -1 -7 -10 -3 -13 5 -14 7 -3 14 11 7 10 11 -2
19 -8 5 -20 10 -26 10 -13 0 -26 25 -17 34 3 3 13 -3 22 -14 9 -10 31 -23 50
-27z m-1126 -45 c4 -24 9 -91 13 -149 l6 -107 -28 6 c-26 6 -27 7 -6 10 13 2
22 10 22 21 0 56 -24 238 -32 249 -8 9 -6 12 5 12 10 0 17 -14 20 -42z m1710
8 c-3 -4 -9 -3 -13 4 -4 7 -13 9 -19 5 -9 -5 -9 -11 1 -23 12 -15 11 -16 -5
-3 -16 13 -16 15 -1 32 13 14 19 15 29 6 7 -7 11 -16 8 -21z m-1339 -54 l179
-58 4 -50 c2 -27 8 -98 14 -158 5 -60 9 -110 7 -111 -2 -1 -21 4 -43 11 l-40
13 39 -5 c37 -5 38 -4 33 18 -4 13 -10 71 -13 130 -4 59 -10 105 -14 103 -4
-2 -5 6 -3 18 4 21 -8 26 -184 84 -103 34 -181 62 -173 62 8 1 96 -25 194 -57z
m1285 -13 c-11 -16 -17 -34 -13 -40 4 -7 3 -9 -4 -5 -6 3 -15 -2 -21 -11 -5
-10 -12 -15 -16 -11 -9 9 24 75 41 82 8 3 11 12 7 23 -6 16 -5 16 10 4 16 -12
15 -15 -4 -42z m-362 -76 c-2 -21 -4 -4 -4 37 0 41 2 58 4 38 2 -21 2 -55 0
-75z m-157 57 c6 -11 7 -20 2 -20 -6 0 -12 9 -15 20 -3 11 -3 20 -1 20 2 0 8
-9 14 -20z m-953 -37 c-3 -10 -5 -2 -5 17 0 19 2 27 5 18 2 -10 2 -26 0 -35z
m1908 28 l50 -10 -67 4 c-51 3 -69 1 -79 -11 -16 -20 -1 -46 32 -55 21 -6 22
-7 3 -8 -22 -1 -46 21 -58 54 -4 11 -4 16 0 12 9 -8 36 12 29 23 -5 8 13 6 90
-9z m-1368 -17 c-5 -5 -57 13 -57 20 0 3 14 0 31 -6 16 -6 28 -12 26 -14z
m-310 10 c-3 -3 -12 -4 -19 -1 -8 3 -5 6 6 6 11 1 17 -2 13 -5z m1796 -11 c-7
-2 -19 -2 -25 0 -7 3 -2 5 12 5 14 0 19 -2 13 -5z m-1503 -25 c0 -5 -9 -4 -20
2 -11 6 -20 12 -20 14 0 2 9 2 20 -1 11 -3 20 -9 20 -15z m210 7 c0 -8 -7 -15
-15 -15 -13 0 -14 3 -3 15 16 18 18 18 18 0z m680 -34 c-5 -11 -15 -23 -22
-27 -6 -4 -9 -3 -6 2 3 5 8 17 11 27 4 9 11 17 17 17 8 0 8 -6 0 -19z m-638
-70 c100 -33 193 -62 206 -66 20 -6 22 -12 20 -63 l-2 -57 -3 52 -4 52 -162
52 c-184 58 -267 88 -250 88 6 1 94 -26 195 -58z m1145 53 c-3 -3 -12 -4 -19
-1 -8 3 -5 6 6 6 11 1 17 -2 13 -5z m-1390 -86 c-2 -18 -4 -6 -4 27 0 33 2 48
4 33 2 -15 2 -42 0 -60z m3788 72 c3 -6 -1 -7 -9 -4 -18 7 -21 14 -7 14 6 0
13 -4 16 -10z m-3502 -18 c-4 -10 -8 -11 -13 -2 -4 6 -10 11 -14 10 -4 -1 -12
1 -19 4 -6 2 2 4 19 3 23 -1 30 -5 27 -15z m-210 -1 c21 10 21 9 3 -5 -20 -16
-37 -13 -35 7 0 9 2 9 6 0 3 -10 10 -10 26 -2z m1034 -93 c-2 -13 -4 -5 -4 17
-1 22 1 32 4 23 2 -10 2 -28 0 -40z m-1863 16 c3 -8 2 -12 -4 -9 -6 3 -10 10
-10 16 0 14 7 11 14 -7z m1366 6 c18 -12 2 -12 -25 0 -13 6 -15 9 -5 9 8 0 22
-4 30 -9z m-1260 -4 c0 -3 -4 -8 -10 -11 -5 -3 -10 -1 -10 4 0 6 5 11 10 11 6
0 10 -2 10 -4z m1457 -24 c-10 -10 -15 -22 -12 -25 3 -4 2 -5 -1 -2 -4 2 -19
-2 -35 -10 -15 -8 -43 -14 -61 -14 l-33 1 35 7 c41 9 72 24 90 45 7 9 17 16
23 16 5 0 3 -8 -6 -18z m-1247 -13 c65 -25 80 -36 79 -58 0 -12 -2 -11 -8 4
-5 12 -34 30 -77 47 -38 15 -64 27 -59 27 6 1 35 -8 65 -20z m1497 -56 c-2
-16 -4 -3 -4 27 0 30 2 43 4 28 2 -16 2 -40 0 -55z m-437 57 c0 -5 -2 -10 -4
-10 -3 0 -8 5 -11 10 -3 6 -1 10 4 10 6 0 11 -4 11 -10z m-1313 -6 c-3 -3 -12
-4 -19 -1 -8 3 -5 6 6 6 11 1 17 -2 13 -5z m700 -66 c-2 -13 -4 -3 -4 22 0 25
2 35 4 23 2 -13 2 -33 0 -45z m620 -55 c-2 -21 -4 -6 -4 32 0 39 2 55 4 38 2
-18 2 -50 0 -70z m-1044 61 l42 -14 -40 6 c-22 3 -53 12 -70 19 l-30 14 28 -6
c16 -3 47 -12 70 -19z m1534 -26 c-3 -7 -5 -2 -5 12 0 14 2 19 5 13 2 -7 2
-19 0 -25z m-1800 -25 c-3 -10 -5 -2 -5 17 0 19 2 27 5 18 2 -10 2 -26 0 -35z
m498 -21 c13 -7 15 -12 6 -12 -17 0 -51 29 -51 43 0 6 6 4 13 -5 6 -8 21 -20
32 -26z m662 -39 c-2 -16 -4 -5 -4 22 0 28 2 40 4 28 2 -13 2 -35 0 -50z m590
20 c-3 -10 -5 -2 -5 17 0 19 2 27 5 18 2 -10 2 -26 0 -35z m2583 -30 c24 -24
40 -43 34 -43 -5 0 -36 28 -69 62 -63 65 -42 54 35 -19z m-3633 25 c-3 -7 -5
-2 -5 12 0 14 2 19 5 13 2 -7 2 -19 0 -25z m670 0 c-3 -7 -5 -2 -5 12 0 14 2
19 5 13 2 -7 2 -19 0 -25z m550 16 c-3 -3 -12 -4 -19 -1 -8 3 -5 6 6 6 11 1
17 -2 13 -5z m-1371 -28 c3 -13 4 -37 1 -52 -3 -23 -4 -21 -6 12 0 22 -6 45
-13 52 -9 9 -9 12 0 12 6 0 14 -11 18 -24z m1324 17 c-8 -3 -27 -12 -42 -20
-16 -7 -28 -10 -28 -5 0 9 47 30 70 30 13 0 13 0 0 -5z m-1863 -55 c-2 -13 -4
-5 -4 17 -1 22 1 32 4 23 2 -10 2 -28 0 -40z m783 42 c13 -9 13 -10 0 -10 -8
0 -22 5 -30 10 -13 9 -13 10 0 10 8 0 22 -5 30 -10z m527 -37 c-3 -10 -5 -4
-5 12 0 17 2 24 5 18 2 -7 2 -21 0 -30z m-437 6 c10 -6 4 -7 -15 -3 -16 4 -37
11 -45 15 -10 6 -4 7 15 3 17 -4 37 -11 45 -15z m-85 -29 c13 -5 14 -9 5 -9
-8 0 -24 4 -35 9 -13 5 -14 9 -5 9 8 0 24 -4 35 -9z m380 -67 c0 -1 -21 4 -45
13 -44 14 -44 14 -7 9 36 -6 37 -5 38 27 2 32 2 32 8 -7 4 -22 6 -41 6 -42z
m549 27 c-10 -16 -20 -28 -22 -26 -4 5 28 56 35 56 2 0 -4 -13 -13 -30z m2287
-12 c16 -29 2 -21 -22 15 -17 23 -18 28 -6 18 10 -8 23 -23 28 -33z m-3134 26
c-3 -3 -12 -4 -19 -1 -8 3 -5 6 6 6 11 1 17 -2 13 -5z m450 -41 c-3 -10 -5 -2
-5 17 0 19 2 27 5 18 2 -10 2 -26 0 -35z m-1310 0 c-3 -10 -5 -4 -5 12 0 17 2
24 5 18 2 -7 2 -21 0 -30z m540 -20 c-3 -10 -5 -2 -5 17 0 19 2 27 5 18 2 -10
2 -26 0 -35z m548 -3 c3 -5 1 -10 -4 -10 -6 0 -11 5 -11 10 0 6 2 10 4 10 3 0
8 -4 11 -10z m666 -31 c-5 -13 -10 -19 -10 -12 -1 15 10 45 15 40 3 -2 0 -15
-5 -28z m-592 5 c13 -11 -8 -10 -34 2 l-30 13 30 -6 c17 -3 32 -7 34 -9z m502
-7 c-10 -9 -11 -8 -5 6 3 10 9 15 12 12 3 -3 0 -11 -7 -18z m-1651 -27 c0 -5
-2 -10 -4 -10 -3 0 -8 5 -11 10 -3 6 -1 10 4 10 6 0 11 -4 11 -10z m3917 -242
c-1 -40 -3 -8 -3 72 0 80 2 112 3 73 2 -40 2 -106 0 -145z m-260 130 c-3 -8
-6 -5 -6 6 -1 11 2 17 5 13 3 -3 4 -12 1 -19z m10 -125 c-2 -16 -4 -5 -4 22 0
28 2 40 4 28 2 -13 2 -35 0 -50z m-30 -20 c-3 -10 -5 -2 -5 17 0 19 2 27 5 18
2 -10 2 -26 0 -35z m40 -296 c-1 -45 -3 -5 -3 88 0 94 2 130 3 82 2 -48 2
-125 0 -170z m-288 166 c-97 -176 -207 -353 -221 -353 -4 0 8 24 27 53 58 88
150 238 189 310 21 37 40 67 43 67 2 0 -15 -35 -38 -77z m-3319 27 c0 -5 -2
-10 -4 -10 -3 0 -8 5 -11 10 -3 6 -1 10 4 10 6 0 11 -4 11 -10z m25 0 c3 -5 1
-10 -4 -10 -6 0 -11 5 -11 10 0 6 2 10 4 10 3 0 8 -4 11 -10z m3552 -143 c-2
-23 -3 -1 -3 48 0 50 1 68 3 42 2 -26 2 -67 0 -90z m260 61 c-2 -13 -4 -5 -4
17 -1 22 1 32 4 23 2 -10 2 -28 0 -40z m-10 -105 c-3 -10 -5 -4 -5 12 0 17 2
24 5 18 2 -7 2 -21 0 -30z m-10 -85 c-3 -7 -5 -2 -5 12 0 14 2 19 5 13 2 -7 2
-19 0 -25z m-1820 6 c-3 -3 -12 -4 -19 -1 -8 3 -5 6 6 6 11 1 17 -2 13 -5z
m1570 -41 c-3 -10 -5 -4 -5 12 0 17 2 24 5 18 2 -7 2 -21 0 -30z m30 -75 c-2
-18 -4 -6 -4 27 0 33 2 48 4 33 2 -15 2 -42 0 -60z m210 30 c-3 -8 -6 -5 -6 6
-1 11 2 17 5 13 3 -3 4 -12 1 -19z m-220 -125 c-3 -10 -5 -2 -5 17 0 19 2 27
5 18 2 -10 2 -26 0 -35z m-10 -55 c-3 -8 -6 -5 -6 6 -1 11 2 17 5 13 3 -3 4
-12 1 -19z m-3273 -557 c4 -5 -3 -7 -14 -4 -23 6 -26 13 -6 13 8 0 17 -4 20
-9z m3986 -42 c0 -5 -4 -9 -10 -9 -5 0 -10 7 -10 16 0 8 5 12 10 9 6 -3 10
-10 10 -16z m-3273 -85 c-3 -3 -12 -4 -19 -1 -8 3 -5 6 6 6 11 1 17 -2 13 -5z
m2703 -169 c0 -5 -5 -3 -10 5 -5 8 -10 20 -10 25 0 6 5 3 10 -5 5 -8 10 -19
10 -25z m866 -133 c-17 -16 -18 -16 -5 5 7 12 15 20 18 17 3 -2 -3 -12 -13
-22z m-36 -56 c0 -2 -8 -10 -17 -17 -16 -13 -17 -12 -4 4 13 16 21 21 21 13z
m-49 -53 c-13 -25 -98 -105 -146 -138 l-40 -27 40 33 c22 18 65 58 95 90 61
64 65 66 51 42z m-191 -168 c0 -6 -56 -35 -67 -35 -4 1 8 9 27 20 39 22 40 22
40 15z m-95 -45 c-3 -5 -12 -10 -18 -10 -7 0 -6 4 3 10 19 12 23 12 15 0z"/>
<path d="M5072 9121 c-89 -31 -99 -36 -70 -39 43 -5 62 -20 47 -38 -28 -34 13
-9 76 47 39 34 72 63 74 65 12 11 -35 -2 -127 -35z m-1 -18 c-10 -4 -8 -9 9
-18 22 -12 22 -12 1 -18 -14 -3 -21 0 -21 9 0 8 -8 14 -17 15 -15 0 -15 2 2 9
11 5 25 9 30 9 6 -1 4 -3 -4 -6z"/>
<path d="M4916 9064 c-51 -18 -54 -22 -16 -19 17 1 39 10 48 19 19 19 19 19
-32 0z"/>
<path d="M5005 9030 c-3 -6 1 -7 9 -4 18 7 21 14 7 14 -6 0 -13 -4 -16 -10z"/>
<path d="M4640 8940 c-11 -7 -4 -10 27 -10 23 0 45 5 48 10 8 13 -55 13 -75 0z"/>
<path d="M3950 9070 c20 -13 33 -13 25 0 -3 6 -14 10 -23 10 -15 0 -15 -2 -2
-10z"/>
<path d="M3890 9035 c-11 -13 -10 -14 4 -9 9 3 16 10 16 15 0 13 -6 11 -20 -6z"/>
<path d="M3950 9035 c-7 -9 -8 -15 -2 -15 5 0 12 7 16 15 3 8 4 15 2 15 -2 0
-9 -7 -16 -15z"/>
<path d="M4226 9057 c3 -10 9 -15 12 -12 3 3 0 11 -7 18 -10 9 -11 8 -5 -6z"/>
<path d="M4413 9043 c9 -2 25 -2 35 0 9 3 1 5 -18 5 -19 0 -27 -2 -17 -5z"/>
<path d="M4120 8759 c0 -5 5 -7 10 -4 6 3 10 8 10 11 0 2 -4 4 -10 4 -5 0 -10
-5 -10 -11z"/>
<path d="M4259 8693 c-13 -16 -12 -17 4 -4 9 7 17 15 17 17 0 8 -8 3 -21 -13z"/>
<path d="M4205 8632 c-5 -4 -11 -20 -12 -36 -2 -29 7 -31 11 -3 1 8 8 22 15
31 14 16 4 22 -14 8z"/>
<path d="M3850 8601 c-13 -26 -13 -31 5 -31 9 0 15 9 15 25 0 30 -6 32 -20 6z"/>
<path d="M3885 8599 c-4 -6 -5 -12 -2 -15 2 -3 7 2 10 11 7 17 1 20 -8 4z"/>
<path d="M4025 8600 c3 -5 8 -10 11 -10 2 0 4 5 4 10 0 6 -5 10 -11 10 -5 0
-7 -4 -4 -10z"/>
<path d="M3886 8557 c3 -10 9 -15 12 -12 3 3 0 11 -7 18 -10 9 -11 8 -5 -6z"/>
<path d="M4160 8560 c0 -5 7 -10 16 -10 8 0 12 5 9 10 -3 6 -10 10 -16 10 -5
0 -9 -4 -9 -10z"/>
<path d="M3930 8540 c0 -5 5 -10 11 -10 5 0 7 5 4 10 -3 6 -8 10 -11 10 -2 0
-4 -4 -4 -10z"/>
<path d="M4143 8543 c4 -6 2 -13 -5 -16 -7 -2 -5 -3 4 -2 9 2 19 -2 22 -9 3
-8 5 -8 5 0 1 6 -7 18 -16 25 -9 8 -14 9 -10 2z"/>
<path d="M3988 8523 c7 -3 16 -2 19 1 4 3 -2 6 -13 5 -11 0 -14 -3 -6 -6z"/>
<path d="M5140 9010 c-8 -5 -10 -10 -5 -10 6 0 17 5 25 10 8 5 11 10 5 10 -5
0 -17 -5 -25 -10z"/>
<path d="M5288 8883 c7 -3 16 -2 19 1 4 3 -2 6 -13 5 -11 0 -14 -3 -6 -6z"/>
<path d="M5210 8850 c0 -5 5 -10 10 -10 6 0 10 5 10 10 0 6 -4 10 -10 10 -5 0
-10 -4 -10 -10z"/>
<path d="M4480 8540 c0 -5 4 -10 9 -10 6 0 13 5 16 10 3 6 -1 10 -9 10 -9 0
-16 -4 -16 -10z"/>
<path d="M3451 8831 c-24 -33 -26 -41 -9 -41 6 0 8 3 5 6 -4 4 3 20 14 35 11
16 18 29 15 29 -2 0 -14 -13 -25 -29z"/>
<path d="M3486 8834 c-9 -24 -7 -27 9 -10 17 17 19 26 6 26 -5 0 -12 -7 -15
-16z"/>
<path d="M3610 8820 c0 -5 5 -10 10 -10 6 0 10 5 10 10 0 6 -4 10 -10 10 -5 0
-10 -4 -10 -10z"/>
<path d="M3389 8753 c-33 -36 -79 -98 -79 -106 0 -19 19 -2 44 38 16 25 34 45
40 46 6 1 25 1 41 1 26 0 27 0 5 5 -53 10 -37 18 30 15 47 -3 70 0 70 7 0 6
-12 11 -27 11 -16 0 -44 3 -63 6 -30 5 -39 1 -61 -23z"/>
<path d="M3386 8704 c-3 -9 -2 -23 4 -32 7 -14 9 -10 10 16 0 35 -5 41 -14 16z"/>
<path d="M3505 8680 c-3 -5 -1 -10 4 -10 6 0 11 5 11 10 0 6 -2 10 -4 10 -3 0
-8 -4 -11 -10z"/>
<path d="M3347 8656 c-4 -10 -1 -13 9 -9 7 3 14 9 14 14 0 14 -17 10 -23 -5z"/>
<path d="M3418 8633 c7 -3 16 -2 19 1 4 3 -2 6 -13 5 -11 0 -14 -3 -6 -6z"/>
<path d="M3610 8610 c0 -6 7 -10 15 -10 8 0 15 2 15 4 0 2 -7 6 -15 10 -8 3
-15 1 -15 -4z"/>
<path d="M4856 8618 c3 -4 9 -8 15 -8 5 0 9 4 9 8 0 5 -7 9 -15 9 -8 0 -12 -4
-9 -9z"/>
<path d="M5006 8558 c3 -4 9 -8 15 -8 5 0 9 4 9 8 0 5 -7 9 -15 9 -8 0 -12 -4
-9 -9z"/>
<path d="M4767 8455 c-4 -9 -3 -13 3 -10 6 3 10 1 10 -4 0 -6 -7 -11 -15 -11
-8 0 -15 -4 -15 -10 0 -13 2 -13 36 5 16 8 38 13 49 10 11 -3 14 -2 7 1 -6 3
-10 9 -7 13 2 5 -8 7 -23 5 -14 -1 -29 2 -33 7 -4 6 -9 4 -12 -6z"/>
<path d="M4785 8660 c-3 -5 -2 -10 4 -10 5 0 13 5 16 10 3 6 2 10 -4 10 -5 0
-13 -4 -16 -10z"/>
<path d="M4723 8545 c0 -8 4 -15 9 -15 4 0 8 4 8 9 0 6 -4 12 -8 15 -5 3 -9
-1 -9 -9z"/>
<path d="M4610 8461 c0 -6 9 -9 19 -8 11 0 17 5 15 9 -7 11 -34 10 -34 -1z"/>
<path d="M4336 8523 c-6 -14 -5 -15 5 -6 7 7 10 15 7 18 -3 3 -9 -2 -12 -12z"/>
<path d="M4310 8479 c-7 -11 -10 -23 -7 -25 2 -2 9 7 15 21 14 30 7 33 -8 4z"/>
<path d="M3601 6334 c0 -11 3 -14 6 -6 3 7 2 16 -1 19 -3 4 -6 -2 -5 -13z"/>
<path d="M3410 6290 c0 -5 7 -7 15 -4 8 4 15 8 15 10 0 2 -7 4 -15 4 -8 0 -15
-4 -15 -10z"/>
<path d="M3393 6263 c-24 -9 -13 -25 12 -19 23 6 25 3 26 -26 2 -31 2 -32 6
-5 3 16 -1 35 -8 43 -12 15 -16 16 -36 7z"/>
<path d="M3376 6191 c-4 -7 -5 -15 -2 -18 9 -9 19 4 14 18 -4 11 -6 11 -12 0z"/>
<path d="M3576 6094 c-3 -9 -4 -20 0 -25 3 -5 -7 -10 -23 -10 -21 -1 -23 -3
-8 -6 11 -3 26 -10 33 -15 9 -8 12 -1 12 31 0 44 -4 51 -14 25z"/>
<path d="M3343 6068 c2 -13 68 -41 76 -33 2 3 -1 5 -7 5 -6 0 -13 8 -16 18 -7
20 -57 29 -53 10z"/>
<path d="M3932 6371 c-8 -5 -12 -17 -10 -27 5 -18 5 -18 13 1 5 11 13 23 19
27 16 11 -6 10 -22 -1z"/>
<path d="M4022 6338 c-14 -14 -16 -38 -4 -38 4 0 14 6 20 12 16 16 33 -7 24
-31 -6 -14 -7 -14 -10 2 -2 9 -7 17 -12 17 -5 0 -7 -10 -5 -21 6 -28 -3 -43
-18 -30 -9 7 -12 -2 -13 -32 0 -23 1 -34 3 -24 3 9 9 17 14 17 6 0 7 5 4 10
-3 6 -2 10 3 10 4 0 18 14 31 30 21 30 21 31 4 60 -19 33 -24 35 -41 18z"/>
<path d="M3890 6326 c0 -2 7 -7 16 -10 8 -3 12 -2 9 4 -6 10 -25 14 -25 6z"/>
<path d="M3854 6306 c-3 -9 -10 -13 -15 -11 -4 3 -8 -7 -9 -22 0 -45 -9 -204
-13 -251 -3 -28 -1 -41 7 -39 6 2 9 16 8 32 -3 22 0 27 12 22 15 -6 29 7 32
31 3 14 -12 16 -21 2 -3 -5 -1 -10 5 -10 6 0 9 -4 5 -10 -3 -5 -12 -7 -21 -3
-13 5 -13 7 1 23 8 9 15 24 15 33 0 9 5 17 10 17 6 0 10 7 10 15 0 20 19 19
27 -1 4 -11 8 -12 13 -4 12 20 -1 56 -23 65 -19 8 -22 18 -22 62 0 54 -10 78
-21 49z m-17 -128 c-3 -7 -5 -2 -5 12 0 14 2 19 5 13 2 -7 2 -19 0 -25z"/>
<path d="M3980 6310 c0 -5 6 -13 13 -17 8 -4 19 -17 26 -28 11 -19 11 -19 9 0
-4 29 -48 71 -48 45z"/>
<path d="M3962 6148 c2 -8 -4 -12 -15 -10 -14 2 -17 -3 -15 -27 2 -34 12 -32
33 9 10 19 11 31 5 35 -6 4 -9 1 -8 -7z"/>
<path d="M3883 6023 c0 -9 4 -10 14 -2 7 6 13 12 13 14 0 1 -6 2 -13 2 -8 0
-14 -6 -14 -14z"/>
<path d="M3761 6384 c0 -11 3 -14 6 -6 3 7 2 16 -1 19 -3 4 -6 -2 -5 -13z"/>
<path d="M3728 6015 c-6 -30 -3 -43 8 -33 3 4 4 19 2 35 l-3 28 -7 -30z"/>
<path d="M4271 6351 c-1 -24 2 -32 9 -25 7 7 7 19 1 35 -9 23 -10 22 -10 -10z"/>
<path d="M4275 6300 c-3 -5 -1 -10 4 -10 6 0 11 5 11 10 0 6 -2 10 -4 10 -3 0
-8 -4 -11 -10z"/>
<path d="M4260 6255 c0 -8 4 -15 10 -15 5 0 7 7 4 15 -4 8 -8 15 -10 15 -2 0
-4 -7 -4 -15z"/>
<path d="M4257 6166 c-3 -8 -2 -18 4 -22 16 -9 22 2 11 21 -8 15 -10 16 -15 1z"/>
<path d="M4518 6053 c7 -3 16 -2 19 1 4 3 -2 6 -13 5 -11 0 -14 -3 -6 -6z"/>
<path d="M4486 5931 c-15 -6 -16 -10 -7 -16 8 -4 16 -3 20 4 4 6 16 9 27 5 16
-5 16 -4 4 5 -17 12 -18 12 -44 2z"/>
<path d="M4470 5789 c0 -5 11 -9 25 -9 14 0 25 2 25 4 0 2 -11 6 -25 8 -14 3
-25 1 -25 -3z"/>
<path d="M4243 5775 c0 -8 4 -15 9 -15 4 0 8 7 8 15 0 8 -4 15 -8 15 -5 0 -9
-7 -9 -15z"/>
<path d="M4163 6104 c-3 -8 -1 -25 5 -37 10 -20 11 -18 11 16 1 39 -5 48 -16
21z"/>
<path d="M4160 6008 c0 -36 11 -31 15 7 2 14 -1 25 -6 25 -5 0 -9 -14 -9 -32z"/>
<path d="M4163 5875 c0 -22 2 -30 4 -17 2 12 2 30 0 40 -3 9 -5 -1 -4 -23z"/>
<path d="M3800 5771 c0 -6 4 -13 10 -16 6 -3 7 1 4 9 -7 18 -14 21 -14 7z"/>
<path d="M4136 5688 l-16 -33 20 24 c11 13 20 27 20 32 0 17 -9 9 -24 -23z"/>
<path d="M3970 5700 c0 -5 5 -10 10 -10 6 0 10 5 10 10 0 6 -4 10 -10 10 -5 0
-10 -4 -10 -10z"/>
<path d="M4076 5593 c-6 -14 -5 -15 5 -6 7 7 10 15 7 18 -3 3 -9 -2 -12 -12z"/>
<path d="M3790 5590 c0 -5 10 -10 23 -10 18 0 19 2 7 10 -19 13 -30 13 -30 0z"/>
<path d="M3887 5539 c6 -23 9 -24 16 -5 3 8 0 17 -7 19 -10 4 -12 -1 -9 -14z"/>
<path d="M3790 5490 c0 -5 7 -7 15 -4 8 4 15 8 15 10 0 2 -7 4 -15 4 -8 0 -15
-4 -15 -10z"/>
<path d="M3960 5436 c0 -2 7 -7 16 -10 8 -3 12 -2 9 4 -6 10 -25 14 -25 6z"/>
<path d="M3811 5298 c0 -14 -7 -29 -13 -31 -7 -3 1 -6 17 -6 17 0 25 3 19 7
-7 4 -14 18 -17 32 l-4 25 -2 -27z"/>
<path d="M3906 5304 c-9 -24 -2 -26 12 -4 7 11 8 20 3 20 -5 0 -12 -7 -15 -16z"/>
<path d="M3876 5253 c-6 -14 -5 -15 5 -6 7 7 10 15 7 18 -3 3 -9 -2 -12 -12z"/>
<path d="M3852 5240 c0 -14 2 -19 5 -12 2 6 2 18 0 25 -3 6 -5 1 -5 -13z"/>
<path d="M3790 5246 c0 -2 7 -6 15 -10 8 -3 15 -1 15 4 0 6 -7 10 -15 10 -8 0
-15 -2 -15 -4z"/>
<path d="M3790 5216 c0 -18 6 -19 35 -6 11 5 15 9 8 9 -6 1 -18 4 -27 7 -11 4
-16 1 -16 -10z"/>
<path d="M2920 6110 c0 -5 5 -10 11 -10 5 0 7 5 4 10 -3 6 -8 10 -11 10 -2 0
-4 -4 -4 -10z"/>
<path d="M2971 6054 c0 -11 3 -14 6 -6 3 7 2 16 -1 19 -3 4 -6 -2 -5 -13z"/>
<path d="M2727 6025 c-4 -8 -3 -16 1 -19 4 -3 9 4 9 15 2 23 -3 25 -10 4z"/>
<path d="M2781 6016 c-10 -12 -9 -14 5 -12 10 2 20 8 22 14 5 17 -13 15 -27
-2z"/>
<path d="M2963 5950 c0 -30 2 -43 4 -27 2 15 2 39 0 55 -2 15 -4 2 -4 -28z"/>
<path d="M2662 5915 c10 -10 49 -14 43 -4 -4 5 -16 9 -27 9 -12 0 -19 -2 -16
-5z"/>
<path d="M2720 5902 c0 -11 51 -35 58 -27 3 3 0 5 -7 5 -7 0 -9 4 -6 10 3 6
-1 7 -9 4 -9 -3 -16 -1 -16 5 0 6 -4 11 -10 11 -5 0 -10 -4 -10 -8z"/>
<path d="M2928 5873 c6 -2 18 -2 25 0 6 3 1 5 -13 5 -14 0 -19 -2 -12 -5z"/>
<path d="M2914 5838 c-4 -7 -3 -8 4 -4 7 4 12 2 12 -3 0 -6 7 -11 15 -11 8 0
15 7 15 15 0 18 -36 20 -46 3z"/>
<path d="M2885 5830 c3 -5 8 -10 11 -10 2 0 4 5 4 10 0 6 -5 10 -11 10 -5 0
-7 -4 -4 -10z"/>
<path d="M2889 5768 c0 -2 -2 -13 -3 -25 -2 -16 1 -20 9 -13 6 5 21 7 33 4 19
-5 19 -8 7 -21 -20 -20 -19 -35 3 -31 10 2 18 14 20 30 3 21 -3 29 -29 42 -32
16 -38 18 -40 14z"/>
<path d="M2641 5734 c0 -11 3 -14 6 -6 3 7 2 16 -1 19 -3 4 -6 -2 -5 -13z"/>
<path d="M2901 5716 c-7 -8 -19 -12 -27 -9 -8 3 -14 0 -14 -6 0 -6 6 -11 13
-11 18 0 53 27 46 34 -3 4 -12 0 -18 -8z"/>
<path d="M2653 5703 c9 -2 23 -2 30 0 6 3 -1 5 -18 5 -16 0 -22 -2 -12 -5z"/>
<path d="M2696 5668 c-8 -12 -13 -25 -10 -30 10 -17 22 -7 26 22 5 36 4 37
-16 8z"/>
<path d="M2763 5673 c-10 -3 -10 -8 1 -19 18 -18 22 -18 29 0 4 11 1 13 -10 9
-11 -4 -14 -2 -9 5 8 13 7 13 -11 5z"/>
<path d="M2852 5666 c7 -8 15 -12 17 -11 5 6 -10 25 -20 25 -5 0 -4 -6 3 -14z"/>
<path d="M2867 5630 c-20 -24 -25 -136 -5 -124 8 5 9 2 5 -10 -4 -9 -3 -15 2
-11 5 3 11 -1 14 -7 2 -7 8 -9 13 -5 5 4 2 12 -5 16 -8 6 -9 11 -3 15 6 3 14
-4 18 -16 6 -22 21 -38 36 -38 4 0 6 15 5 34 -1 19 -5 32 -10 29 -4 -2 -5 -9
-2 -14 3 -5 0 -6 -7 -4 -8 3 -15 17 -16 32 -3 33 -12 44 -12 14 0 -14 -4 -20
-12 -15 -7 4 -8 3 -4 -4 4 -7 3 -12 -3 -12 -16 0 -18 12 -12 65 5 40 10 49 24
47 10 -2 17 3 17 13 0 21 -22 19 -43 -5z"/>
<path d="M2935 5640 c4 -6 11 -8 16 -5 14 9 11 15 -7 15 -8 0 -12 -5 -9 -10z"/>
<path d="M2650 5586 c7 -7 13 -7 20 0 6 6 3 10 -10 10 -13 0 -16 -4 -10 -10z"/>
<path d="M2930 5590 c0 -5 5 -10 10 -10 6 0 10 5 10 10 0 6 -4 10 -10 10 -5 0
-10 -4 -10 -10z"/>
<path d="M2678 5563 c7 -3 16 -2 19 1 4 3 -2 6 -13 5 -11 0 -14 -3 -6 -6z"/>
<path d="M2638 5553 c7 -3 16 -2 19 1 4 3 -2 6 -13 5 -11 0 -14 -3 -6 -6z"/>
<path d="M2810 5530 c0 -5 5 -10 10 -10 6 0 10 5 10 10 0 6 -4 10 -10 10 -5 0
-10 -4 -10 -10z"/>
<path d="M2791 5499 c18 -11 39 -11 39 0 0 5 -12 9 -26 9 -18 0 -22 -3 -13 -9z"/>
<path d="M3254 6012 c4 -6 -2 -8 -15 -5 -21 6 -21 5 -5 -20 24 -36 46 -42 46
-12 0 18 5 23 20 22 11 -1 20 -5 20 -10 0 -4 5 -5 11 -1 15 9 -3 19 -50 29
-22 5 -31 4 -27 -3z"/>
<path d="M3360 5984 c8 -12 23 -21 36 -21 13 0 21 3 18 8 -3 5 -13 9 -23 9 -9
0 -23 6 -30 13 -11 10 -11 8 -1 -9z"/>
<path d="M3292 5950 c0 -19 2 -27 5 -17 2 9 2 25 0 35 -3 9 -5 1 -5 -18z"/>
<path d="M3311 5944 c0 -11 3 -14 6 -6 3 7 2 16 -1 19 -3 4 -6 -2 -5 -13z"/>
<path d="M3370 5841 c0 -12 5 -21 10 -21 6 0 10 6 10 14 0 8 -4 18 -10 21 -5
3 -10 -3 -10 -14z"/>
<path d="M3180 5660 c0 -13 5 -18 15 -14 8 4 15 10 15 14 0 4 -7 10 -15 14
-10 4 -15 -1 -15 -14z"/>
<path d="M3354 5655 c4 -24 16 -30 16 -7 0 12 -4 22 -9 22 -5 0 -8 -7 -7 -15z"/>
<path d="M3547 5656 c-6 -16 2 -28 14 -20 12 7 11 34 0 34 -5 0 -11 -6 -14
-14z"/>
<path d="M3370 5470 c0 -5 5 -10 11 -10 5 0 7 5 4 10 -3 6 -8 10 -11 10 -2 0
-4 -4 -4 -10z"/>
<path d="M3563 5385 c0 -33 2 -45 4 -27 2 18 2 45 0 60 -2 15 -4 0 -4 -33z"/>
<path d="M3245 5350 c3 -5 8 -10 11 -10 2 0 4 5 4 10 0 6 -5 10 -11 10 -5 0
-7 -4 -4 -10z"/>
<path d="M3550 5279 c7 -11 14 -18 17 -15 8 8 -5 36 -17 36 -7 0 -7 -6 0 -21z"/>
<path d="M3720 5865 c0 -8 5 -15 10 -15 6 0 10 7 10 15 0 8 -4 15 -10 15 -5 0
-10 -7 -10 -15z"/>
<path d="M3714 5465 c0 -115 2 -161 3 -102 2 59 2 154 0 210 -1 56 -3 8 -3
-108z"/>
<path d="M4233 5600 c0 -25 2 -35 4 -22 2 12 2 32 0 45 -2 12 -4 2 -4 -23z"/>
<path d="M4460 5560 c0 -5 5 -10 10 -10 6 0 10 5 10 10 0 6 -4 10 -10 10 -5 0
-10 -4 -10 -10z"/>
<path d="M4230 5479 c0 -5 9 -9 20 -9 11 0 20 2 20 4 0 2 -9 6 -20 9 -11 3
-20 1 -20 -4z"/>
<path d="M4237 5453 c-12 -11 -8 -23 8 -23 8 0 15 7 15 15 0 16 -12 20 -23 8z"/>
<path d="M4233 5313 c-1 -16 1 -21 4 -13 3 8 10 21 16 28 6 8 5 12 -5 12 -8 0
-14 -11 -15 -27z"/>
<path d="M4232 5193 l-2 -93 24 11 c14 7 22 17 19 25 -6 17 -20 18 -27 2 -2
-7 -4 -3 -2 9 1 12 5 26 9 29 10 11 8 26 -2 19 -6 -3 -12 16 -14 42 -2 27 -4
8 -5 -44z"/>
<path d="M4453 5255 c0 -18 5 -25 18 -25 11 0 19 6 19 14 0 8 6 16 13 19 7 2
8 8 3 13 -5 5 -11 4 -13 -3 -3 -7 -11 -13 -19 -13 -9 0 -12 5 -9 10 3 6 2 10
-3 10 -5 0 -9 -11 -9 -25z"/>
<path d="M4296 5155 c-9 -26 -7 -32 5 -12 6 10 9 21 6 23 -2 3 -7 -2 -11 -11z"/>
<path d="M4360 5150 c-8 -5 -10 -10 -5 -10 6 0 17 5 25 10 8 5 11 10 5 10 -5
0 -17 -5 -25 -10z"/>
<path d="M6133 5487 c-46 -23 -83 -45 -83 -49 0 -9 124 52 155 76 30 23 18 19
-72 -27z"/>
<path d="M4147 5524 c-3 -3 -3 -13 0 -22 4 -9 2 -13 -4 -9 -5 3 -10 0 -10 -8
0 -8 6 -15 12 -15 6 0 11 14 11 30 0 32 0 33 -9 24z"/>
<path d="M4105 5450 c-3 -5 1 -10 10 -10 9 0 13 5 10 10 -3 6 -8 10 -10 10 -2
0 -7 -4 -10 -10z"/>
<path d="M4147 5298 c-2 -7 -3 -25 -1 -40 1 -16 -2 -28 -7 -28 -13 0 -11 -17
4 -23 9 -3 13 11 15 49 3 52 -1 67 -11 42z"/>
<path d="M4141 5123 c-1 -10 -2 -31 -3 -48 -3 -34 24 -44 30 -11 2 10 0 16 -5
13 -5 -3 -7 10 -5 29 2 19 0 34 -6 34 -6 0 -11 -8 -11 -17z"/>
<path d="M3970 5060 c0 -5 5 -10 10 -10 6 0 10 5 10 10 0 6 -4 10 -10 10 -5 0
-10 -4 -10 -10z"/>
<path d="M4125 5010 c-4 -6 -10 -8 -15 -5 -5 3 -11 1 -15 -5 -3 -5 -1 -10 5
-10 8 0 8 -6 0 -20 -6 -11 -19 -20 -30 -20 -21 0 -37 -40 -25 -59 11 -19 20
-12 37 27 10 20 27 52 39 70 11 17 19 32 16 32 -3 0 -9 -5 -12 -10z m-52 -77
c-7 -2 -13 -12 -13 -20 0 -9 -3 -14 -6 -10 -10 10 4 37 18 36 10 0 10 -2 1 -6z"/>
<path d="M3969 4997 c0 -1 -2 -10 -4 -19 -3 -15 0 -16 16 -8 10 6 19 12 19 14
0 4 -30 17 -31 13z"/>
<path d="M3813 4913 c21 -5 23 -23 2 -23 -9 0 -12 -6 -9 -15 8 -21 32 -19 30
3 0 9 5 16 12 15 6 -2 12 1 12 6 0 9 -36 22 -55 20 -5 -1 -2 -3 8 -6z"/>
<path d="M3858 4873 c7 -3 16 -2 19 1 4 3 -2 6 -13 5 -11 0 -14 -3 -6 -6z"/>
<path d="M3996 4863 c-4 -13 -12 -23 -17 -23 -5 0 -19 -10 -30 -21 -17 -17
-23 -19 -30 -8 -6 9 -7 4 -3 -14 5 -23 3 -29 -15 -34 -12 -3 -21 -13 -21 -24
0 -25 -12 -24 -29 3 -14 22 -14 22 -22 3 -7 -19 -8 -19 -8 2 -1 12 4 25 9 28
15 10 12 22 -6 22 -15 0 -16 -10 -10 -75 3 -41 6 -88 6 -105 0 -22 4 -28 15
-23 8 3 15 1 15 -4 0 -6 -7 -10 -15 -10 -8 0 -15 -4 -15 -10 0 -16 32 -12 53
8 15 12 18 13 12 2 -5 -8 6 -1 25 17 29 29 31 34 19 50 -12 15 -12 16 2 11 21
-8 128 197 111 214 -8 8 -13 6 -18 -7 -7 -18 -8 -18 -14 1 -7 18 -7 18 -14 -3z
m-20 -139 c-4 -9 -9 -15 -11 -12 -3 3 -3 13 1 22 4 9 9 15 11 12 3 -3 3 -13
-1 -22z m-46 -18 c0 -3 -4 -8 -10 -11 -5 -3 -10 -1 -10 4 0 6 5 11 10 11 6 0
10 -2 10 -4z m-37 -33 c-7 -2 -19 -2 -25 0 -7 3 -2 5 12 5 14 0 19 -2 13 -5z
m22 -53 c3 -5 1 -10 -4 -10 -6 0 -11 5 -11 10 0 6 2 10 4 10 3 0 8 -4 11 -10z"/>
<path d="M3890 4845 c0 -8 5 -15 10 -15 6 0 10 7 10 15 0 8 -4 15 -10 15 -5 0
-10 -7 -10 -15z"/>
<path d="M6169 5448 c-6 -11 -5 -48 1 -48 4 0 8 11 8 25 0 21 -5 32 -9 23z"/>
<path d="M6081 5374 c0 -11 3 -14 6 -6 3 7 2 16 -1 19 -3 4 -6 -2 -5 -13z"/>
<path d="M2805 5381 c11 -4 36 -11 55 -15 24 -4 29 -3 15 3 -11 4 -36 11 -55
15 -24 4 -29 3 -15 -3z"/>
<path d="M2612 5335 c0 -16 2 -22 5 -12 2 9 2 23 0 30 -3 6 -5 -1 -5 -18z"/>
<path d="M2925 5340 c-3 -5 1 -10 9 -10 9 0 16 5 16 10 0 6 -4 10 -9 10 -6 0
-13 -4 -16 -10z"/>
<path d="M2712 5317 c-7 -8 -7 -18 -2 -27 9 -13 10 -13 10 0 1 12 4 11 15 -3
7 -10 21 -17 31 -15 19 3 28 35 12 45 -6 3 -8 2 -5 -3 3 -6 2 -16 -4 -24 -7
-12 -9 -10 -9 8 0 12 -5 22 -11 22 -5 0 -7 -4 -4 -10 3 -6 -1 -7 -9 -4 -9 3
-13 10 -10 15 8 14 -2 11 -14 -4z"/>
<path d="M2621 5256 c-9 -10 -8 -15 2 -19 8 -3 13 3 13 14 0 23 0 23 -15 5z"/>
<path d="M2780 5250 c0 -5 5 -10 10 -10 6 0 10 5 10 10 0 6 -4 10 -10 10 -5 0
-10 -4 -10 -10z"/>
<path d="M2936 5244 c-4 -9 -4 -19 -1 -22 2 -3 7 3 11 12 4 9 4 19 1 22 -2 3
-7 -3 -11 -12z"/>
<path d="M2750 5240 c-13 -8 -12 -10 4 -10 12 0 16 -5 13 -15 -4 -8 -2 -17 3
-20 15 -9 19 9 7 32 -9 16 -16 20 -27 13z"/>
<path d="M2675 5230 c27 -12 43 -12 25 0 -8 5 -22 9 -30 9 -10 0 -8 -3 5 -9z"/>
<path d="M2669 5205 c44 -20 81 -19 81 0 0 18 -21 20 -38 3 -9 -9 -15 -9 -24
0 -7 7 -21 12 -32 12 -16 -1 -12 -5 13 -15z"/>
<path d="M2756 5164 c-9 -22 4 -34 27 -25 17 6 17 8 -1 24 -18 17 -20 17 -26
1z m24 -8 c0 -3 -4 -8 -10 -11 -5 -3 -10 -1 -10 4 0 6 5 11 10 11 6 0 10 -2
10 -4z"/>
<path d="M2932 5144 c-7 -8 -18 -11 -24 -8 -6 4 -8 3 -5 -3 7 -11 40 -11 45 0
8 17 -4 24 -16 11z"/>
<path d="M2630 5141 c0 -10 35 -21 65 -20 13 0 8 5 -15 14 -43 17 -50 17 -50
6z"/>
<path d="M2860 5125 c-10 -12 -10 -15 4 -15 9 0 16 7 16 15 0 8 -2 15 -4 15
-2 0 -9 -7 -16 -15z"/>
<path d="M2870 4874 c0 -4 11 -17 24 -29 29 -27 76 -41 76 -23 0 14 -20 48
-20 35 0 -4 -9 -3 -20 3 -14 8 -20 8 -20 0 0 -6 -5 -8 -10 -5 -6 4 -8 11 -5
16 4 5 -1 9 -9 9 -9 0 -16 -3 -16 -6z"/>
<path d="M2835 4850 c28 -12 37 -12 30 0 -3 6 -16 10 -28 9 -21 0 -21 -1 -2
-9z"/>
<path d="M3250 5256 c0 -3 9 -10 20 -16 11 -6 20 -8 20 -6 0 3 -9 10 -20 16
-11 6 -20 8 -20 6z"/>
<path d="M3181 5214 c0 -11 3 -14 6 -6 3 7 2 16 -1 19 -3 4 -6 -2 -5 -13z"/>
<path d="M3485 5170 c3 -5 14 -10 23 -10 15 0 15 2 2 10 -20 13 -33 13 -25 0z"/>
<path d="M3366 5095 c4 -8 10 -15 15 -15 5 0 4 -8 -2 -18 -9 -14 -9 -23 0 -38
10 -17 11 -16 9 8 -2 18 4 33 17 43 16 12 17 14 3 9 -12 -4 -18 -1 -18 10 0 9
-7 16 -15 16 -9 0 -12 -6 -9 -15z"/>
<path d="M3186 5075 c-9 -26 -7 -32 5 -12 6 10 9 21 6 23 -2 3 -7 -2 -11 -11z"/>
<path d="M3283 5051 c3 -13 -1 -21 -12 -24 -12 -4 -11 -5 4 -6 12 0 25 9 32
24 10 22 9 25 -9 25 -15 0 -19 -5 -15 -19z"/>
<path d="M3228 5033 c7 -3 16 -2 19 1 4 3 -2 6 -13 5 -11 0 -14 -3 -6 -6z"/>
<path d="M3460 5020 c0 -5 5 -10 10 -10 6 0 10 5 10 10 0 6 -4 10 -10 10 -5 0
-10 -4 -10 -10z"/>
<path d="M3516 4951 c-5 -8 35 -31 54 -31 16 0 11 27 -5 34 -8 3 -15 1 -15 -4
0 -6 -5 -10 -11 -10 -5 0 -7 5 -4 10 3 6 2 10 -4 10 -5 0 -12 -4 -15 -9z"/>
<path d="M3449 4938 c-5 -16 -4 -46 2 -42 4 2 7 13 6 24 -1 17 -5 26 -8 18z"/>
<path d="M3295 4900 c3 -5 8 -10 11 -10 2 0 4 5 4 10 0 6 -5 10 -11 10 -5 0
-7 -4 -4 -10z"/>
<path d="M6638 8983 c7 -3 16 -2 19 1 4 3 -2 6 -13 5 -11 0 -14 -3 -6 -6z"/>
<path d="M6368 8973 c6 -2 18 -2 25 0 6 3 1 5 -13 5 -14 0 -19 -2 -12 -5z"/>
<path d="M6264 8939 c-71 -36 -83 -66 -24 -60 8 1 3 -8 -12 -20 -27 -20 -28
-23 -28 -120 0 -54 4 -99 8 -99 19 0 42 38 42 68 0 21 8 38 22 50 46 38 58 53
58 78 0 39 -18 67 -38 59 -19 -9 -72 -14 -72 -8 0 3 7 11 15 19 8 9 15 12 15
8 0 -5 5 -3 11 3 6 6 18 9 25 6 8 -3 14 1 14 9 0 8 12 19 28 25 15 6 20 11 12
12 -8 0 -42 -14 -76 -30z m8 -114 c-2 -14 -8 -25 -12 -25 -10 0 -8 20 3 38 12
18 15 15 9 -13z"/>
<path d="M6405 8922 c-8 -21 4 -34 26 -27 25 8 24 -6 -6 -65 -39 -76 -36 -84
31 -77 56 6 88 22 78 38 -3 5 -14 9 -25 9 -24 0 -24 -4 6 64 14 32 23 62 19
67 -9 15 -123 7 -129 -9z"/>
<path d="M6561 8922 c-4 -9 -9 -47 -10 -85 -2 -74 0 -77 81 -90 27 -4 38 -2
42 9 5 14 -8 23 -56 38 -10 3 -18 12 -18 21 0 12 7 14 28 9 43 -10 46 -10 49
7 3 12 -6 18 -31 23 -28 5 -36 12 -36 28 0 15 3 18 13 10 16 -13 59 -10 64 5
3 7 -8 15 -24 19 -15 3 -43 10 -61 14 -25 7 -34 5 -41 -8z"/>
<path d="M6694 8828 c-4 -40 -8 -77 -8 -83 -2 -23 38 -9 44 15 6 23 8 21 19
-17 11 -41 44 -73 55 -54 3 4 2 22 -3 38 -5 17 -5 36 0 44 5 8 9 26 9 41 0 22
-9 34 -41 53 -67 43 -65 44 -75 -37z m72 2 c0 -22 -11 -26 -22 -9 -5 9 5 22
21 29 1 0 1 -9 1 -20z"/>
<path d="M6846 8798 c-3 -7 -10 -37 -17 -67 l-12 -55 32 -28 c18 -16 37 -26
43 -22 6 4 8 3 5 -3 -9 -15 26 -44 41 -34 7 4 17 32 24 62 l11 55 -47 45 c-60
55 -75 64 -80 47z m71 -124 c-2 -37 -7 -40 -25 -22 -13 13 -16 66 -6 93 10 25
34 -30 31 -71z"/>
<path d="M7003 8639 c-2 -22 23 -56 34 -46 7 7 -16 67 -26 67 -4 0 -7 -10 -8
-21z"/>
<path d="M6090 8585 c0 -8 5 -15 10 -15 6 0 10 7 10 15 0 8 -4 15 -10 15 -5 0
-10 -7 -10 -15z"/>
<path d="M7772 6380 c0 -19 2 -27 5 -17 2 9 2 25 0 35 -3 9 -5 1 -5 -18z"/>
<path d="M7753 6233 c4 -3 2 -12 -4 -20 -9 -10 -7 -13 9 -13 15 0 19 5 15 20
-3 11 -10 20 -16 20 -6 0 -7 -3 -4 -7z"/>
<path d="M7789 6198 c-6 -12 -4 -48 2 -48 5 0 9 11 9 25 0 21 -6 33 -11 23z"/>
</g>
</svg>
